# Blender v3.6.23 OBJ File: 'FullCubePieces.blend'
# www.blender.org
mtllib c2.mtl
o c2_Cube.034
v -0.925713 0.924391 0.999999
v -0.925713 0.999391 0.924999
v -1.000713 0.924391 0.924999
v -0.925713 0.977424 0.978032
v -0.969014 0.967692 0.968300
v -0.978746 0.977424 0.924999
v -0.978746 0.924391 0.978032
v -0.925712 -1.000609 0.924999
v -0.925712 -0.925609 0.999999
v -1.000712 -0.925609 0.924999
v -0.925712 -0.978642 0.978032
v -0.969013 -0.968910 0.968300
v -0.978745 -0.925609 0.978032
v -0.978745 -0.978642 0.924999
v -1.000712 0.924391 -0.925001
v -0.925712 0.999391 -0.925001
v -0.925712 0.924391 -1.000001
v -0.978745 0.977424 -0.925001
v -0.969013 0.967692 -0.968302
v -0.925712 0.977424 -0.978034
v -0.978745 0.924391 -0.978034
v -1.000712 -0.925609 -0.925002
v -0.925712 -0.925609 -1.000001
v -0.925712 -1.000609 -0.925002
v -0.978745 -0.925609 -0.978034
v -0.969013 -0.968910 -0.968302
v -0.925712 -0.978642 -0.978034
v -0.978745 -0.978642 -0.925002
v 0.924287 0.924391 0.999999
v 0.999287 0.924391 0.925000
v 0.924287 0.999391 0.925000
v 0.977320 0.924391 0.978032
v 0.967588 0.967692 0.968300
v 0.977320 0.977424 0.925000
v 0.924287 0.977424 0.978032
v 0.999288 -0.925609 0.924999
v 0.924288 -0.925609 0.999999
v 0.924288 -1.000609 0.924999
v 0.977321 -0.925609 0.978032
v 0.967589 -0.968910 0.968300
v 0.924288 -0.978642 0.978032
v 0.977321 -0.978642 0.924999
v 0.999288 0.924391 -0.925001
v 0.924288 0.924391 -1.000001
v 0.924288 0.999391 -0.925001
v 0.977321 0.924391 -0.978034
v 0.967589 0.967692 -0.968301
v 0.924288 0.977424 -0.978034
v 0.977321 0.977424 -0.925001
v 0.924288 -1.000609 -0.925001
v 0.924288 -0.925609 -1.000001
v 0.999288 -0.925609 -0.925001
v 0.924288 -0.978642 -0.978034
v 0.967589 -0.968910 -0.968302
v 0.977321 -0.925609 -0.978034
v 0.977321 -0.978642 -0.925001
vt 0.615625 0.509375
vt 0.615625 0.500000
vt 0.623679 0.500000
vt 0.625000 0.509375
vt 0.384375 0.509375
vt 0.375000 0.509375
vt 0.375000 0.501321
vt 0.384375 0.500000
vt 0.615625 0.740625
vt 0.625000 0.740625
vt 0.625000 0.748679
vt 0.615625 0.750000
vt 0.384375 0.740625
vt 0.384375 0.750000
vt 0.376321 0.750000
vt 0.375000 0.740625
vt 0.615625 0.009375
vt 0.615625 0.000000
vt 0.621038 0.000000
vt 0.625000 0.009375
vt 0.634375 0.509375
vt 0.629688 0.495313
vt 0.634375 0.740625
vt 0.629687 0.754688
vt 0.865625 0.509375
vt 0.865625 0.500000
vt 0.871038 0.500000
vt 0.875000 0.509375
vt 0.865625 0.740625
vt 0.875000 0.740625
vt 0.875000 0.746038
vt 0.865625 0.750000
vt 0.615625 0.490625
vt 0.365625 0.509375
vt 0.370312 0.495312
vt 0.384375 0.490625
vt 0.365625 0.740625
vt 0.370313 0.754688
vt 0.615625 0.259375
vt 0.615625 0.250000
vt 0.623019 0.248019
vt 0.625000 0.259375
vt 0.615625 0.240625
vt 0.625000 0.240625
vt 0.384375 0.240625
vt 0.384375 0.250000
vt 0.376981 0.251981
vt 0.375000 0.240625
vt 0.384375 0.259375
vt 0.375000 0.259375
vt 0.134375 0.509375
vt 0.125000 0.509375
vt 0.125000 0.503962
vt 0.134375 0.500000
vt 0.134375 0.740625
vt 0.134375 0.750000
vt 0.128962 0.750000
vt 0.125000 0.740625
vt 0.384375 0.009375
vt 0.375000 0.009375
vt 0.375000 0.003962
vt 0.384375 0.000000
vt 0.615625 0.759375
vt 0.384375 0.759375
vt 0.615625 0.990625
vt 0.625000 0.990625
vt 0.625000 0.996038
vt 0.615625 1.000000
vt 0.384375 0.990625
vt 0.384375 1.000000
vt 0.378962 1.000000
vt 0.375000 0.990625
vn -0.9673 0.1794 0.1794
vn -0.6965 0.1726 0.6965
vn -0.5774 0.5774 0.5774
vn -0.6965 0.6965 0.1726
vn -0.9673 -0.1794 0.1794
vn -0.6965 -0.6965 0.1726
vn -0.5774 -0.5773 0.5774
vn -0.6965 -0.1726 0.6965
vn -0.9673 0.1794 -0.1794
vn -0.6965 0.6965 -0.1726
vn -0.5774 0.5774 -0.5773
vn -0.6965 0.1726 -0.6965
vn -0.9673 -0.1794 -0.1794
vn -0.6965 -0.1726 -0.6965
vn -0.5773 -0.5774 -0.5773
vn -0.6965 -0.6965 -0.1726
vn 0.9673 0.1794 -0.1794
vn 0.6965 0.1726 -0.6965
vn 0.5774 0.5774 -0.5773
vn 0.6965 0.6965 -0.1726
vn -0.1794 0.9673 0.1794
vn -0.1726 0.6965 0.6965
vn -0.1794 0.9673 -0.1794
vn -0.1726 0.6965 -0.6965
vn 0.1794 0.9673 0.1794
vn 0.1726 0.6965 0.6965
vn 0.5774 0.5774 0.5774
vn 0.6965 0.6965 0.1726
vn 0.1794 0.9673 -0.1794
vn 0.1726 0.6965 -0.6965
vn -0.1794 0.1794 0.9673
vn -0.1794 -0.9673 0.1794
vn -0.1726 -0.6965 0.6965
vn -0.1794 -0.1794 0.9673
vn -0.1794 -0.9673 -0.1794
vn -0.1726 -0.6965 -0.6965
vn 0.1794 0.1794 0.9673
vn 0.6965 0.1726 0.6965
vn 0.9673 0.1794 0.1794
vn 0.9673 -0.1794 0.1794
vn 0.6965 -0.1726 0.6965
vn 0.5774 -0.5774 0.5773
vn 0.6965 -0.6965 0.1726
vn 0.1794 -0.1794 0.9673
vn 0.1726 -0.6965 0.6965
vn 0.1794 -0.9673 0.1794
vn 0.1794 -0.9673 -0.1794
vn 0.1726 -0.6965 -0.6965
vn 0.5774 -0.5774 -0.5773
vn 0.6965 -0.6965 -0.1726
vn 0.9673 -0.1794 -0.1794
vn 0.6965 -0.1726 -0.6965
vn -0.1794 0.1794 -0.9673
vn -0.1794 -0.1794 -0.9673
vn 0.1794 0.1794 -0.9673
vn 0.1794 -0.1794 -0.9673
usemtl Red.033
s 1
f 3/1/1 7/2/2 5/3/3 6/4/4
f 10/5/5 14/6/6 12/7/7 13/8/8
f 15/9/9 18/10/10 19/11/11 21/12/12
f 22/13/13 25/14/14 26/15/15 28/16/16
f 3/1/1 10/5/5 13/8/8 7/2/2
f 21/12/12 25/14/14 22/13/13 15/9/9
f 6/4/4 18/10/10 15/9/9 3/1/1
f 28/16/16 14/6/6 10/5/5 22/13/13
f 10/5/5 3/1/1 15/9/9 22/13/13
f 43/17/17 46/18/18 47/19/19 49/20/20
usemtl White
f 2/21/21 6/4/4 5/3/3 4/22/22
f 16/23/23 20/24/24 19/11/11 18/10/10
f 31/25/25 35/26/26 33/27/27 34/28/28
f 45/29/29 49/30/20 47/31/19 48/32/30
f 16/23/23 45/29/29 48/32/30 20/24/24
f 2/21/21 16/23/23 18/10/10 6/4/4
f 45/29/29 31/25/25 34/28/28 49/30/20
f 31/25/25 2/21/21 4/22/22 35/26/26
f 2/21/21 31/25/25 45/29/29 16/23/23
usemtl Interior
f 1/33/31 4/22/22 5/3/3 7/2/2
f 8/34/32 11/35/33 12/7/7 14/6/6
f 9/36/34 13/8/8 12/7/7 11/35/33
f 24/37/35 28/16/16 26/15/15 27/38/36
f 29/39/37 32/40/38 33/41/27 35/42/26
f 30/43/39 34/44/28 33/41/27 32/40/38
f 36/45/40 39/46/41 40/47/42 42/48/43
f 37/49/44 41/50/45 40/47/42 39/46/41
f 38/51/46 42/52/43 40/53/42 41/54/45
f 50/55/47 53/56/48 54/57/49 56/58/50
f 52/59/51 56/60/50 54/61/49 55/62/52
f 38/51/46 50/55/47 56/58/50 42/52/43
f 42/48/43 56/60/50 52/59/51 36/45/40
f 8/34/32 38/51/46 41/54/45 11/35/33
f 11/35/33 41/50/45 37/49/44 9/36/34
f 7/2/2 13/8/8 9/36/34 1/33/31
f 55/62/52 46/18/18 43/17/17 52/59/51
f 29/39/37 37/49/44 39/46/41 32/40/38
f 32/40/38 39/46/41 36/45/40 30/43/39
f 50/55/47 24/37/35 27/38/36 53/56/48
f 49/20/20 34/44/28 30/43/39 43/17/17
f 35/42/26 4/22/22 1/33/31 29/39/37
f 24/37/35 8/34/32 14/6/6 28/16/16
f 37/49/44 29/39/37 1/33/31 9/36/34
f 38/51/46 8/34/32 24/37/35 50/55/47
f 52/59/51 43/17/17 30/43/39 36/45/40
usemtl Green
f 17/63/53 21/12/12 19/11/11 20/24/24
f 23/64/54 27/38/36 26/15/15 25/14/14
f 44/65/55 48/66/30 47/67/19 46/68/18
f 51/69/56 55/70/52 54/71/49 53/72/48
f 51/69/56 44/65/55 46/68/18 55/70/52
f 17/63/53 23/64/54 25/14/14 21/12/12
f 20/24/24 48/66/30 44/65/55 17/63/53
f 53/72/48 27/38/36 23/64/54 51/69/56
f 23/64/54 17/63/53 44/65/55 51/69/56
