# Blender v3.6.23 OBJ File: 'FullCubePieces.blend'
# www.blender.org
mtllib e0.mtl
o e0_Cube.041
v -0.999287 -0.502947 0.502338
v 1.000713 -0.502947 0.502339
v -0.924285 0.924392 -1.000000
v -0.999286 0.924392 -0.925001
v -0.924285 0.999392 -0.925000
v -0.977319 0.924392 -0.978034
v -0.967586 0.967693 -0.968301
v -0.977319 0.977425 -0.925001
v -0.924285 0.977425 -0.978034
v 0.925715 0.924392 -1.000000
v 0.925715 0.999392 -0.925000
v 1.000714 0.924392 -0.925000
v 0.925715 0.977425 -0.978033
v 0.969015 0.967693 -0.968301
v 0.978747 0.977425 -0.925000
v 0.978747 0.924392 -0.978033
v -0.924287 0.999392 0.496436
v -0.999287 0.924392 0.502338
v -0.977320 0.977425 0.500609
v -0.495723 0.999392 0.925000
v -0.501626 0.924392 1.000000
v -0.499897 0.977425 0.978033
v -0.902710 0.999392 0.632659
v -0.974930 0.924392 0.656123
v -0.953777 0.977425 0.649252
v -0.842809 0.999392 0.750222
v -0.904242 0.924392 0.794857
v -0.886249 0.977425 0.781784
v -0.749510 0.999392 0.843522
v -0.794144 0.924392 0.904955
v -0.781071 0.977425 0.886961
v -0.631946 0.999392 0.903424
v -0.655411 0.924392 0.975643
v -0.648539 0.977425 0.954490
v -0.501626 -1.000608 0.917111
v -0.501626 -0.917719 1.000000
v -0.501626 -0.976330 0.975722
v -0.974930 -0.656732 0.569754
v -0.974930 -0.570363 0.656123
v -0.983277 -0.604029 0.603420
v -0.974930 -0.631435 0.630827
v -0.904242 -0.795465 0.709050
v -0.904242 -0.709659 0.794857
v -0.904242 -0.770333 0.769724
v -0.794144 -0.905563 0.820352
v -0.794144 -0.820960 0.904954
v -0.794144 -0.880784 0.880176
v -0.655411 -0.976251 0.892151
v -0.655411 -0.892759 0.975643
v -0.655411 -0.951797 0.951189
v -0.495722 -0.925608 -1.000000
v -0.501626 -1.000608 -0.925000
v -0.499897 -0.978641 -0.978034
v -0.924287 -0.497044 -1.000000
v -0.999286 -0.502947 -0.925001
v -0.977320 -0.501218 -0.978034
v -0.631946 -0.904032 -1.000000
v -0.655411 -0.976251 -0.925000
v -0.648539 -0.955098 -0.978034
v -0.749510 -0.844130 -1.000000
v -0.794144 -0.905563 -0.925001
v -0.781071 -0.887570 -0.978034
v -0.842809 -0.750831 -1.000000
v -0.904242 -0.795465 -0.925001
v -0.886249 -0.782392 -0.978034
v -0.902710 -0.633267 -1.000000
v -0.974930 -0.656732 -0.925001
v -0.953777 -0.649860 -0.978034
v 0.497149 0.999392 0.925001
v 0.503052 0.924392 1.000000
v 0.501323 0.977425 0.978033
v 0.925713 0.999392 0.496437
v 1.000713 0.924392 0.502339
v 0.978746 0.977425 0.500610
v 0.633372 0.999392 0.903424
v 0.656837 0.924392 0.975644
v 0.649965 0.977425 0.954490
v 0.750936 0.999392 0.843522
v 0.795570 0.924392 0.904955
v 0.782497 0.977425 0.886962
v 0.844235 0.999392 0.750224
v 0.905668 0.924392 0.794857
v 0.887675 0.977425 0.781784
v 0.904137 0.999392 0.632659
v 0.976356 0.924392 0.656125
v 0.955203 0.977425 0.649252
v 0.503052 -0.917719 1.000000
v 0.503052 -1.000608 0.917111
v 0.503052 -0.976330 0.975722
v 0.976356 -0.570363 0.656125
v 0.976356 -0.656732 0.569756
v 0.984703 -0.604029 0.603422
v 0.976356 -0.631435 0.630827
v 0.905668 -0.795465 0.709052
v 0.905668 -0.709659 0.794858
v 0.905668 -0.770333 0.769725
v 0.795570 -0.905563 0.820353
v 0.795570 -0.820960 0.904955
v 0.795570 -0.880783 0.880176
v 0.656837 -0.976251 0.892151
v 0.656837 -0.892759 0.975644
v 0.656837 -0.951797 0.951190
v 0.925713 -0.497044 -0.999999
v 1.000713 -0.502947 -0.924999
v 0.978746 -0.501218 -0.978033
v 0.497150 -0.925608 -1.000000
v 0.503052 -1.000608 -0.924999
v 0.501323 -0.978641 -0.978033
v 0.904138 -0.633267 -0.999999
v 0.976356 -0.656732 -0.924999
v 0.955203 -0.649860 -0.978033
v 0.844235 -0.750831 -0.999999
v 0.905669 -0.795465 -0.924999
v 0.887675 -0.782392 -0.978033
v 0.750936 -0.844130 -0.999999
v 0.795571 -0.905563 -0.924999
v 0.782497 -0.887570 -0.978033
v 0.633372 -0.904032 -0.999999
v 0.656837 -0.976251 -0.924999
v 0.649965 -0.955098 -0.978033
vt 0.615625 0.740625
vt 0.625000 0.740625
vt 0.625000 0.748679
vt 0.615625 0.750000
vt 0.615625 0.009375
vt 0.615625 0.000000
vt 0.621038 0.000000
vt 0.625000 0.009375
vt 0.417984 0.553921
vt 0.420495 0.546016
vt 0.424572 0.549572
vt 0.426556 0.542246
vt 0.428781 0.207016
vt 0.422200 0.204505
vt 0.424572 0.200428
vt 0.421410 0.198445
vt 0.388481 0.292984
vt 0.385361 0.312208
vt 0.375020 0.312084
vt 0.378586 0.291923
vt 0.166923 0.503586
vt 0.187083 0.500020
vt 0.187208 0.510361
vt 0.167984 0.513481
vt 0.187425 0.750058
vt 0.168007 0.750000
vt 0.167984 0.740625
vt 0.187208 0.740625
vt 0.397456 0.275643
vt 0.387307 0.271608
vt 0.148625 0.512964
vt 0.150643 0.522456
vt 0.150550 0.750000
vt 0.150643 0.740625
vt 0.403421 0.224357
vt 0.395115 0.222454
vt 0.125000 0.525643
vt 0.125000 0.536369
vt 0.125573 0.750000
vt 0.125000 0.740625
vt 0.417984 0.207016
vt 0.391469 0.213631
vt 0.417984 0.196219
vt 0.375960 0.000000
vt 0.417721 0.000000
vt 0.417985 0.009375
vt 0.375723 0.009375
vt 0.437382 0.000000
vt 0.437208 0.009375
vt 0.627744 0.543009
vt 0.625003 0.562383
vt 0.615625 0.562208
vt 0.618192 0.542984
vt 0.635439 0.525628
vt 0.625583 0.525643
vt 0.400643 0.536865
vt 0.402089 0.527089
vt 0.417984 0.542985
vt 0.411865 0.525643
vt 0.428921 0.542984
vt 0.647297 0.507031
vt 0.636273 0.506391
vt 0.368732 0.505516
vt 0.370678 0.495678
vt 0.380516 0.493732
vt 0.661996 0.496674
vt 0.650482 0.496151
vt 0.355738 0.493009
vt 0.355831 0.480831
vt 0.368009 0.480738
vt 0.664044 0.476679
vt 0.651962 0.476462
vt 0.344222 0.482161
vt 0.343968 0.468968
vt 0.357161 0.469222
vt 0.625000 0.293007
vt 0.625058 0.312425
vt 0.615625 0.312208
vt 0.615625 0.292984
vt 0.625000 0.275264
vt 0.615625 0.275643
vt 0.625000 0.224736
vt 0.615276 0.224357
vt 0.625000 0.206993
vt 0.615625 0.207016
vt 0.625000 0.187618
vt 0.615625 0.187792
vt 0.371674 0.786996
vt 0.351679 0.789044
vt 0.351462 0.776962
vt 0.371151 0.775482
vt 0.382030 0.772297
vt 0.381391 0.761273
vt 0.400628 0.760439
vt 0.400643 0.750583
vt 0.418009 0.752744
vt 0.417984 0.743192
vt 0.437383 0.750003
vt 0.437208 0.740625
vt 0.437208 0.562208
vt 0.437208 0.187792
vt 0.615552 0.759302
vt 0.629687 0.754687
vt 0.615569 0.990569
vt 0.625000 0.990625
vt 0.625000 0.996038
vt 0.615625 1.000000
vt 0.383625 0.936304
vt 0.386883 0.953893
vt 0.378108 0.956989
vt 0.374969 0.937595
vt 0.394423 0.968641
vt 0.386936 0.974317
vt 0.406092 0.980310
vt 0.400683 0.988064
vt 0.420783 0.987793
vt 0.418011 0.996892
vt 0.437792 0.990472
vt 0.437384 0.999997
vt 0.378656 0.787933
vt 0.367123 0.795783
vt 0.389911 0.777238
vt 0.404673 0.767412
vt 0.420230 0.761001
vt 0.437393 0.758748
vt 0.634302 0.740552
vt 0.865569 0.740569
vt 0.875000 0.740625
vt 0.875000 0.746038
vt 0.865625 0.750000
vt 0.636001 0.545230
vt 0.633748 0.562393
vt 0.642412 0.529673
vt 0.652238 0.514911
vt 0.662933 0.503657
vt 0.670783 0.492123
vt 0.828893 0.511883
vt 0.811304 0.508625
vt 0.812596 0.499969
vt 0.831989 0.503108
vt 0.843641 0.519423
vt 0.849317 0.511936
vt 0.855310 0.531092
vt 0.863064 0.525683
vt 0.862793 0.545783
vt 0.871892 0.543011
vt 0.865472 0.562793
vt 0.874997 0.562384
vn -0.9673 0.1794 -0.1794
vn -0.6965 0.6965 -0.1726
vn -0.5773 0.5774 -0.5773
vn -0.6965 0.1726 -0.6965
vn 0.9673 0.1794 -0.1794
vn 0.6965 0.1726 -0.6965
vn 0.5774 0.5773 -0.5773
vn 0.6965 0.6965 -0.1726
vn -0.9504 -0.3088 0.0357
vn -0.9569 -0.2053 0.2053
vn -0.9881 -0.1087 0.1087
vn -0.9504 -0.0357 0.3088
vn 0.9504 -0.0357 0.3088
vn 0.9569 -0.2053 0.2053
vn 0.9881 -0.1087 0.1087
vn 0.9504 -0.3088 0.0357
vn 0.3519 -0.1899 0.9166
vn 0.0922 -0.2015 0.9751
vn 0.1079 -0.7030 0.7030
vn 0.3943 -0.6498 0.6498
vn 0.0922 -0.9751 0.2015
vn 0.3519 -0.9166 0.1899
vn 0.0562 -0.7135 -0.6984
vn 0.2232 -0.6869 -0.6916
vn 0.3032 -0.9331 -0.1936
vn 0.0770 -0.9780 -0.1938
vn 0.6377 -0.1441 0.7567
vn 0.6918 -0.5106 0.5106
vn 0.6377 -0.7567 0.1441
vn 0.4245 -0.5843 -0.6916
vn 0.5767 -0.7937 -0.1936
vn 0.8374 -0.0918 0.5388
vn 0.8735 -0.3443 0.3443
vn 0.8374 -0.5388 0.0918
vn 0.5843 -0.4245 -0.6916
vn 0.7937 -0.5767 -0.1936
vn 0.6869 -0.2232 -0.6916
vn 0.9331 -0.3032 -0.1936
vn 0.7135 -0.0562 -0.6984
vn 0.9780 -0.0770 -0.1938
vn -0.6869 0.6916 0.2232
vn -0.7135 0.6984 0.0561
vn -0.9780 0.1938 0.0770
vn -0.9331 0.1936 0.3032
vn -0.5843 0.6916 0.4245
vn -0.7937 0.1936 0.5767
vn -0.8374 -0.5388 0.0918
vn -0.8735 -0.3443 0.3443
vn -0.8374 -0.0918 0.5388
vn -0.4245 0.6916 0.5843
vn -0.5767 0.1936 0.7937
vn -0.6377 -0.7567 0.1441
vn -0.6918 -0.5106 0.5106
vn -0.6377 -0.1441 0.7567
vn -0.2232 0.6916 0.6869
vn -0.3032 0.1936 0.9331
vn -0.3519 -0.9166 0.1899
vn -0.3943 -0.6498 0.6498
vn -0.3519 -0.1899 0.9166
vn -0.0562 0.6984 0.7135
vn -0.0770 0.1938 0.9780
vn -0.0922 -0.9751 0.2015
vn -0.1079 -0.7030 0.7030
vn -0.0922 -0.2015 0.9751
vn 0.2232 0.6916 0.6869
vn 0.0562 0.6984 0.7135
vn 0.0770 0.1938 0.9780
vn 0.3032 0.1936 0.9331
vn 0.4245 0.6916 0.5843
vn 0.5767 0.1936 0.7937
vn 0.5843 0.6916 0.4245
vn 0.7937 0.1936 0.5767
vn 0.6869 0.6916 0.2232
vn 0.9331 0.1936 0.3032
vn 0.7135 0.6984 0.0562
vn 0.9780 0.1938 0.0770
vn -0.2232 -0.6869 -0.6916
vn -0.0562 -0.7135 -0.6984
vn -0.0770 -0.9780 -0.1938
vn -0.3032 -0.9331 -0.1935
vn -0.4245 -0.5843 -0.6916
vn -0.5767 -0.7937 -0.1936
vn -0.5843 -0.4245 -0.6916
vn -0.7937 -0.5767 -0.1936
vn -0.6869 -0.2232 -0.6916
vn -0.9331 -0.3032 -0.1936
vn -0.7135 -0.0561 -0.6984
vn -0.9780 -0.0770 -0.1938
vn -0.9965 -0.0590 0.0590
vn 0.9965 -0.0590 0.0590
vn -0.1794 0.1794 -0.9673
vn -0.1726 0.6965 -0.6965
vn 0.1794 0.1794 -0.9673
vn 0.1726 0.6965 -0.6965
vn 0.0160 -0.2032 -0.9790
vn 0.0653 -0.2010 -0.9774
vn 0.1242 -0.1710 -0.9774
vn 0.1710 -0.1242 -0.9774
vn 0.2010 -0.0653 -0.9774
vn 0.2033 -0.0160 -0.9790
vn -0.0653 -0.2010 -0.9774
vn -0.0160 -0.2032 -0.9790
vn -0.1242 -0.1710 -0.9774
vn -0.1710 -0.1242 -0.9774
vn -0.2010 -0.0653 -0.9774
vn -0.2032 -0.0160 -0.9790
vn -0.1794 0.9673 -0.1794
vn 0.1794 0.9673 -0.1794
vn -0.2010 0.9774 0.0653
vn -0.2033 0.9790 0.0160
vn -0.1710 0.9774 0.1242
vn -0.1242 0.9774 0.1710
vn -0.0653 0.9774 0.2010
vn -0.0160 0.9790 0.2033
vn 0.0653 0.9774 0.2010
vn 0.0160 0.9790 0.2033
vn 0.1242 0.9774 0.1710
vn 0.1710 0.9774 0.1242
vn 0.2010 0.9774 0.0653
vn 0.2033 0.9790 0.0160
usemtl Interior
s 1
f 4/1/1 8/2/2 7/3/3 6/4/4
f 12/5/5 16/6/6 14/7/7 15/8/8
f 38/9/9 41/10/10 40/11/11
f 41/10/10 39/12/12 40/11/11
f 90/13/13 93/14/14 92/15/15
f 93/14/14 91/16/16 92/15/15
f 101/17/17 87/18/18 89/19/19 102/20/20
f 102/21/20 89/22/19 88/23/21 100/24/22
f 108/25/23 120/26/24 119/27/25 107/28/26
f 98/29/27 101/17/17 102/20/20 99/30/28
f 99/31/28 102/21/20 100/24/22 97/32/29
f 120/26/24 117/33/30 116/34/31 119/27/25
f 95/35/32 98/29/27 99/30/28 96/36/33
f 96/37/33 99/31/28 97/32/29 94/38/34
f 117/33/30 114/39/35 113/40/36 116/34/31
f 90/13/13 95/35/32 96/36/33 93/41/14
f 93/41/14 96/36/33 94/42/34 91/43/16
f 114/44/35 111/45/37 110/46/38 113/47/36
f 111/45/37 105/48/39 104/49/40 110/46/38
f 25/50/41 19/51/42 18/52/43 24/53/44
f 28/54/45 25/50/41 24/53/44 27/55/46
f 38/9/9 42/56/47 44/57/48 41/58/10
f 41/58/10 44/57/48 43/59/49 39/60/12
f 31/61/50 28/54/45 27/55/46 30/62/51
f 42/56/47 45/63/52 47/64/53 44/57/48
f 44/57/48 47/64/53 46/65/54 43/59/49
f 34/66/55 31/61/50 30/62/51 33/67/56
f 45/63/52 48/68/57 50/69/58 47/64/53
f 47/64/53 50/69/58 49/70/59 46/65/54
f 22/71/60 34/66/55 33/67/56 21/72/61
f 48/68/57 35/73/62 37/74/63 50/69/58
f 50/69/58 37/74/63 36/75/64 49/70/59
f 77/76/65 71/77/66 70/78/67 76/79/68
f 80/80/69 77/76/65 76/79/68 79/81/70
f 83/82/71 80/80/69 79/81/70 82/83/72
f 86/84/73 83/82/71 82/83/72 85/85/74
f 74/86/75 86/84/73 85/85/74 73/87/76
f 59/88/77 53/89/78 52/90/79 58/91/80
f 62/92/81 59/88/77 58/91/80 61/93/82
f 65/94/83 62/92/81 61/93/82 64/95/84
f 68/96/85 65/94/83 64/95/84 67/97/86
f 56/98/87 68/96/85 67/97/86 55/99/88
f 35/73/62 88/23/21 89/22/19 37/74/63
f 37/74/63 89/19/19 87/18/18 36/75/64
f 71/77/66 22/71/60 21/72/61 70/78/67
f 19/51/42 8/2/2 4/1/1 18/52/43
f 6/4/4 56/98/87 55/99/88 4/1/1
f 73/87/76 12/5/5 15/8/8 74/86/75
f 53/89/78 108/25/23 107/28/26 52/90/79
f 12/5/5 104/49/40 105/48/39 16/6/6
f 1/100/89 18/52/43 4/1/1 55/99/88
f 104/49/40 12/5/5 73/87/76 2/101/90
f 18/52/43 1/100/89 40/11/11 39/60/12 24/53/44
f 33/67/56 49/70/59 36/75/64 21/72/61
f 87/18/18 70/78/67 21/72/61 36/75/64
f 24/53/44 39/60/12 43/59/49 27/55/46
f 27/55/46 43/59/49 46/65/54 30/62/51
f 30/62/51 46/65/54 49/70/59 33/67/56
f 52/90/79 35/73/62 48/68/57 58/91/80
f 88/23/21 35/73/62 52/90/79 107/28/26
f 67/97/86 38/9/9 40/11/11 1/100/89 55/99/88
f 64/95/84 42/56/47 38/9/9 67/97/86
f 61/93/82 45/63/52 42/56/47 64/95/84
f 58/91/80 48/68/57 45/63/52 61/93/82
f 70/78/67 87/18/18 101/17/17 76/79/68
f 85/85/74 90/13/13 92/15/15 2/101/90 73/87/76
f 76/79/68 101/17/17 98/29/27 79/81/70
f 79/81/70 98/29/27 95/35/32 82/83/72
f 82/83/72 95/35/32 90/13/13 85/85/74
f 88/23/21 107/28/26 119/27/25 100/24/22
f 94/42/34 113/47/36 110/46/38 91/43/16
f 92/15/15 91/43/16 110/46/38 104/49/40 2/101/90
f 97/32/29 116/34/31 113/40/36 94/38/34
f 100/24/22 119/27/25 116/34/31 97/32/29
usemtl Blue
f 3/102/91 6/4/4 7/3/3 9/103/92
f 10/104/93 13/105/94 14/106/7 16/107/6
f 9/103/92 13/105/94 10/104/93 3/102/91
f 106/108/95 118/109/96 120/110/24 108/111/23
f 118/109/96 115/112/97 117/113/30 120/110/24
f 115/112/97 112/114/98 114/115/35 117/113/30
f 112/114/98 109/116/99 111/117/37 114/115/35
f 109/116/99 103/118/100 105/119/39 111/117/37
f 57/120/101 51/121/102 53/89/78 59/88/77
f 60/122/103 57/120/101 59/88/77 62/92/81
f 63/123/104 60/122/103 62/92/81 65/94/83
f 66/124/105 63/123/104 65/94/83 68/96/85
f 54/125/106 66/124/105 68/96/85 56/98/87
f 3/102/91 54/125/106 56/98/87 6/4/4
f 51/121/102 106/108/95 108/111/23 53/89/78
f 16/107/6 105/119/39 103/118/100 10/104/93
f 51/121/102 57/120/101 60/122/103 63/123/104 66/124/105 54/125/106 3/102/91 10/104/93 103/118/100 109/116/99 112/114/98 115/112/97 118/109/96 106/108/95
usemtl White
f 5/126/107 9/103/92 7/3/3 8/2/2
f 11/127/108 15/128/8 14/129/7 13/130/94
f 5/126/107 11/127/108 13/130/94 9/103/92
f 23/131/109 17/132/110 19/51/42 25/50/41
f 26/133/111 23/131/109 25/50/41 28/54/45
f 29/134/112 26/133/111 28/54/45 31/61/50
f 32/135/113 29/134/112 31/61/50 34/66/55
f 20/136/114 32/135/113 34/66/55 22/71/60
f 75/137/115 69/138/116 71/139/66 77/140/65
f 78/141/117 75/137/115 77/140/65 80/142/69
f 81/143/118 78/141/117 80/142/69 83/144/71
f 84/145/119 81/143/118 83/144/71 86/146/73
f 72/147/120 84/145/119 86/146/73 74/148/75
f 69/138/116 20/136/114 22/71/60 71/139/66
f 17/132/110 5/126/107 8/2/2 19/51/42
f 74/148/75 15/128/8 11/127/108 72/147/120
f 17/132/110 23/131/109 26/133/111 29/134/112 32/135/113 20/136/114 69/138/116 75/137/115 78/141/117 81/143/118 84/145/119 72/147/120 11/127/108 5/126/107
