# Blender v3.6.23 OBJ File: 'FullCubePieces.blend'
# www.blender.org
mtllib e11.mtl
o e11_Cube.045
v -1.000000 -0.501732 0.503053
v 1.000000 -0.501732 0.503050
v -0.925002 0.925606 -0.999288
v -1.000002 0.925606 -0.924287
v -0.925002 1.000606 -0.924287
v -0.978035 0.925606 -0.977321
v -0.968303 0.968907 -0.967589
v -0.978035 0.978639 -0.924287
v -0.925002 0.978639 -0.977321
v 0.924998 0.925606 -0.999289
v 0.924998 1.000606 -0.924290
v 0.999998 0.925606 -0.924290
v 0.924998 0.978639 -0.977323
v 0.968299 0.968907 -0.967592
v 0.978031 0.978639 -0.924290
v 0.978031 0.925606 -0.977323
v -0.925000 1.000607 0.497148
v -1.000000 0.925607 0.503051
v -0.978033 0.978640 0.501322
v -0.496435 1.000607 0.925712
v -0.502338 0.925607 1.000712
v -0.500609 0.978640 0.978745
v -0.903424 1.000607 0.633371
v -0.975642 0.925607 0.656837
v -0.954489 0.978640 0.649964
v -0.843521 1.000607 0.750935
v -0.904954 0.925607 0.795569
v -0.886961 0.978640 0.782496
v -0.750222 1.000607 0.844234
v -0.794856 0.925607 0.905667
v -0.781783 0.978640 0.887674
v -0.632658 1.000607 0.904136
v -0.656123 0.925607 0.976355
v -0.649251 0.978640 0.955202
v -0.502338 -0.999393 0.917824
v -0.502338 -0.916504 1.000713
v -0.502338 -0.975115 0.976435
v -0.975643 -0.655518 0.570469
v -0.975643 -0.569148 0.656838
v -0.983990 -0.602813 0.604135
v -0.975643 -0.630220 0.631541
v -0.904955 -0.794250 0.709765
v -0.904955 -0.708444 0.795570
v -0.904955 -0.769118 0.770440
v -0.794857 -0.904348 0.821065
v -0.794856 -0.819745 0.905668
v -0.794856 -0.879569 0.880889
v -0.656123 -0.975036 0.892864
v -0.656123 -0.891544 0.976356
v -0.656123 -0.950582 0.951902
v -0.496438 -0.924394 -0.999287
v -0.502341 -0.999394 -0.924286
v -0.500612 -0.977427 -0.977320
v -0.925002 -0.495830 -0.999287
v -1.000002 -0.501733 -0.924286
v -0.978035 -0.500004 -0.977320
v -0.632661 -0.902818 -0.999287
v -0.656126 -0.975037 -0.924286
v -0.649254 -0.953884 -0.977320
v -0.750225 -0.842916 -0.999287
v -0.794859 -0.904349 -0.924286
v -0.781786 -0.886356 -0.977320
v -0.843524 -0.749617 -0.999287
v -0.904957 -0.794251 -0.924286
v -0.886964 -0.781178 -0.977320
v -0.903426 -0.632053 -0.999287
v -0.975645 -0.655518 -0.924286
v -0.954492 -0.648646 -0.977320
v 0.496437 1.000607 0.925711
v 0.502340 0.925607 1.000711
v 0.500611 0.978640 0.978744
v 0.925000 1.000607 0.497146
v 1.000000 0.925607 0.503049
v 0.978033 0.978640 0.501320
v 0.632660 1.000607 0.904135
v 0.656125 0.925607 0.976354
v 0.649253 0.978640 0.955201
v 0.750224 1.000607 0.844233
v 0.794858 0.925607 0.905666
v 0.781785 0.978640 0.887673
v 0.843523 1.000607 0.750932
v 0.904956 0.925607 0.795568
v 0.886963 0.978640 0.782494
v 0.903424 1.000607 0.633369
v 0.975643 0.925607 0.656834
v 0.954491 0.978640 0.649962
v 0.502340 -0.916504 1.000712
v 0.502340 -0.999393 0.917823
v 0.502340 -0.975115 0.976434
v 0.975643 -0.569148 0.656836
v 0.975643 -0.655518 0.570467
v 0.983990 -0.602814 0.604132
v 0.975643 -0.630220 0.631538
v 0.904955 -0.794250 0.709763
v 0.904956 -0.708444 0.795569
v 0.904955 -0.769118 0.770436
v 0.794858 -0.904348 0.821064
v 0.794858 -0.819745 0.905667
v 0.794858 -0.879568 0.880887
v 0.656125 -0.975036 0.892863
v 0.656125 -0.891544 0.976355
v 0.656125 -0.950582 0.951901
v 0.924998 -0.495830 -0.999288
v 0.999998 -0.501733 -0.924288
v 0.978031 -0.500004 -0.977322
v 0.496434 -0.924394 -0.999288
v 0.502337 -0.999394 -0.924288
v 0.500608 -0.977427 -0.977321
v 0.903422 -0.632053 -0.999288
v 0.975641 -0.655518 -0.924288
v 0.954488 -0.648646 -0.977322
v 0.843520 -0.749617 -0.999288
v 0.904953 -0.794251 -0.924288
v 0.886960 -0.781178 -0.977321
v 0.750221 -0.842916 -0.999288
v 0.794855 -0.904349 -0.924288
v 0.781782 -0.886356 -0.977321
v 0.632657 -0.902818 -0.999288
v 0.656122 -0.975037 -0.924288
v 0.649250 -0.953884 -0.977321
vt 0.634302 0.740552
vt 0.629687 0.754687
vt 0.625000 0.748679
vt 0.625000 0.740625
vt 0.865569 0.740569
vt 0.875000 0.740625
vt 0.875000 0.746038
vt 0.865625 0.750000
vt 0.636001 0.545230
vt 0.633748 0.562393
vt 0.625003 0.562383
vt 0.627744 0.543009
vt 0.642412 0.529673
vt 0.635439 0.525628
vt 0.652238 0.514911
vt 0.647297 0.507031
vt 0.662933 0.503657
vt 0.661996 0.496674
vt 0.670783 0.492123
vt 0.664044 0.476679
vt 0.828893 0.511883
vt 0.811304 0.508625
vt 0.812596 0.499969
vt 0.831989 0.503108
vt 0.843641 0.519423
vt 0.849317 0.511936
vt 0.855310 0.531092
vt 0.863064 0.525683
vt 0.862793 0.545783
vt 0.871892 0.543011
vt 0.865472 0.562793
vt 0.874997 0.562384
vt 0.615552 0.759302
vt 0.615625 0.750000
vt 0.615569 0.990569
vt 0.625000 0.990625
vt 0.625000 0.996038
vt 0.615625 1.000000
vt 0.383625 0.936304
vt 0.386883 0.953893
vt 0.378108 0.956989
vt 0.374969 0.937595
vt 0.394423 0.968641
vt 0.386936 0.974317
vt 0.406092 0.980310
vt 0.400683 0.988064
vt 0.420783 0.987793
vt 0.418011 0.996892
vt 0.437792 0.990472
vt 0.437384 0.999997
vt 0.378656 0.787933
vt 0.367123 0.795783
vt 0.351679 0.789044
vt 0.371674 0.786996
vt 0.389911 0.777238
vt 0.382030 0.772297
vt 0.404673 0.767412
vt 0.400628 0.760439
vt 0.420230 0.761001
vt 0.418009 0.752744
vt 0.437393 0.758748
vt 0.437383 0.750003
vt 0.615625 0.740625
vt 0.615625 0.009375
vt 0.615625 0.000000
vt 0.621038 0.000000
vt 0.625000 0.009375
vt 0.417984 0.553921
vt 0.420495 0.546016
vt 0.424572 0.549572
vt 0.426556 0.542246
vt 0.428781 0.207016
vt 0.422200 0.204505
vt 0.424572 0.200428
vt 0.421410 0.198445
vt 0.388481 0.292984
vt 0.385361 0.312208
vt 0.375020 0.312084
vt 0.378586 0.291923
vt 0.166923 0.503586
vt 0.187083 0.500020
vt 0.187208 0.510361
vt 0.167984 0.513481
vt 0.187425 0.750058
vt 0.168007 0.750000
vt 0.167984 0.740625
vt 0.187208 0.740625
vt 0.397456 0.275643
vt 0.387307 0.271608
vt 0.148625 0.512964
vt 0.150643 0.522456
vt 0.150550 0.750000
vt 0.150643 0.740625
vt 0.403421 0.224357
vt 0.395115 0.222454
vt 0.125000 0.525643
vt 0.125000 0.536369
vt 0.125573 0.750000
vt 0.125000 0.740625
vt 0.417984 0.207016
vt 0.391469 0.213631
vt 0.417984 0.196219
vt 0.375960 0.000000
vt 0.417721 0.000000
vt 0.417985 0.009375
vt 0.375723 0.009375
vt 0.437382 0.000000
vt 0.437208 0.009375
vt 0.615625 0.562208
vt 0.618192 0.542984
vt 0.625583 0.525643
vt 0.400643 0.536865
vt 0.402089 0.527089
vt 0.417984 0.542985
vt 0.411865 0.525643
vt 0.428921 0.542984
vt 0.636273 0.506391
vt 0.368732 0.505516
vt 0.370678 0.495678
vt 0.380516 0.493732
vt 0.650482 0.496151
vt 0.355738 0.493009
vt 0.355831 0.480831
vt 0.368009 0.480738
vt 0.651962 0.476462
vt 0.344222 0.482161
vt 0.343968 0.468968
vt 0.357161 0.469222
vt 0.625000 0.293007
vt 0.625058 0.312425
vt 0.615625 0.312208
vt 0.615625 0.292984
vt 0.625000 0.275264
vt 0.615625 0.275643
vt 0.625000 0.224736
vt 0.615276 0.224357
vt 0.625000 0.206993
vt 0.615625 0.207016
vt 0.625000 0.187618
vt 0.615625 0.187792
vt 0.351462 0.776962
vt 0.371151 0.775482
vt 0.381391 0.761273
vt 0.400643 0.750583
vt 0.417984 0.743192
vt 0.437208 0.740625
vt 0.437208 0.562208
vt 0.437208 0.187792
vn -0.1794 0.9673 -0.1794
vn -0.1726 0.6965 -0.6965
vn -0.5773 0.5774 -0.5773
vn -0.6965 0.6965 -0.1726
vn 0.1794 0.9673 -0.1794
vn 0.6965 0.6965 -0.1726
vn 0.5773 0.5774 -0.5774
vn 0.1726 0.6965 -0.6965
vn -0.2010 0.9774 0.0653
vn -0.2033 0.9790 0.0160
vn -0.7135 0.6984 0.0562
vn -0.6869 0.6916 0.2232
vn -0.1710 0.9774 0.1242
vn -0.5843 0.6916 0.4245
vn -0.1242 0.9774 0.1710
vn -0.4245 0.6916 0.5843
vn -0.0653 0.9774 0.2010
vn -0.2232 0.6916 0.6869
vn -0.0160 0.9790 0.2032
vn -0.0562 0.6984 0.7135
vn 0.0653 0.9774 0.2010
vn 0.0160 0.9790 0.2032
vn 0.0562 0.6984 0.7135
vn 0.2232 0.6916 0.6869
vn 0.1242 0.9774 0.1710
vn 0.4245 0.6916 0.5843
vn 0.1710 0.9774 0.1242
vn 0.5843 0.6916 0.4245
vn 0.2010 0.9774 0.0653
vn 0.6869 0.6916 0.2232
vn 0.2032 0.9790 0.0160
vn 0.7135 0.6984 0.0561
vn -0.1794 0.1794 -0.9673
vn -0.6965 0.1726 -0.6965
vn 0.1794 0.1794 -0.9673
vn 0.6965 0.1726 -0.6965
vn 0.0160 -0.2033 -0.9790
vn 0.0653 -0.2010 -0.9774
vn 0.2232 -0.6869 -0.6916
vn 0.0562 -0.7135 -0.6984
vn 0.1242 -0.1710 -0.9774
vn 0.4245 -0.5843 -0.6916
vn 0.1710 -0.1242 -0.9774
vn 0.5843 -0.4245 -0.6916
vn 0.2010 -0.0653 -0.9774
vn 0.6869 -0.2232 -0.6916
vn 0.2032 -0.0160 -0.9790
vn 0.7135 -0.0562 -0.6984
vn -0.0653 -0.2010 -0.9774
vn -0.0160 -0.2033 -0.9790
vn -0.0562 -0.7135 -0.6984
vn -0.2232 -0.6869 -0.6916
vn -0.1242 -0.1710 -0.9774
vn -0.4245 -0.5843 -0.6916
vn -0.1710 -0.1242 -0.9774
vn -0.5843 -0.4245 -0.6916
vn -0.2010 -0.0653 -0.9774
vn -0.6869 -0.2232 -0.6916
vn -0.2033 -0.0160 -0.9790
vn -0.7135 -0.0562 -0.6984
vn -0.9673 0.1794 -0.1794
vn 0.9673 0.1794 -0.1794
vn -0.9504 -0.3088 0.0357
vn -0.9569 -0.2053 0.2053
vn -0.9881 -0.1087 0.1087
vn -0.9504 -0.0357 0.3088
vn 0.9504 -0.0357 0.3088
vn 0.9569 -0.2053 0.2053
vn 0.9881 -0.1087 0.1087
vn 0.9504 -0.3088 0.0357
vn 0.3519 -0.1899 0.9166
vn 0.0922 -0.2015 0.9751
vn 0.1079 -0.7030 0.7030
vn 0.3943 -0.6498 0.6498
vn 0.0922 -0.9751 0.2015
vn 0.3519 -0.9166 0.1899
vn 0.3032 -0.9331 -0.1936
vn 0.0770 -0.9780 -0.1938
vn 0.6377 -0.1441 0.7567
vn 0.6918 -0.5106 0.5106
vn 0.6377 -0.7567 0.1441
vn 0.5767 -0.7937 -0.1936
vn 0.8374 -0.0918 0.5388
vn 0.8735 -0.3443 0.3443
vn 0.8374 -0.5388 0.0918
vn 0.7937 -0.5767 -0.1936
vn 0.9331 -0.3032 -0.1936
vn 0.9780 -0.0770 -0.1938
vn -0.9780 0.1938 0.0770
vn -0.9331 0.1936 0.3032
vn -0.7937 0.1936 0.5767
vn -0.8374 -0.5388 0.0918
vn -0.8735 -0.3443 0.3443
vn -0.8374 -0.0918 0.5388
vn -0.5767 0.1936 0.7937
vn -0.6377 -0.7567 0.1441
vn -0.6918 -0.5106 0.5106
vn -0.6377 -0.1441 0.7567
vn -0.3032 0.1936 0.9331
vn -0.3519 -0.9166 0.1899
vn -0.3943 -0.6498 0.6498
vn -0.3519 -0.1899 0.9166
vn -0.0770 0.1938 0.9780
vn -0.0922 -0.9751 0.2015
vn -0.1079 -0.7030 0.7030
vn -0.0922 -0.2015 0.9751
vn 0.0770 0.1938 0.9780
vn 0.3032 0.1936 0.9331
vn 0.5767 0.1936 0.7937
vn 0.7937 0.1936 0.5767
vn 0.9331 0.1936 0.3032
vn 0.9780 0.1938 0.0770
vn -0.0770 -0.9780 -0.1938
vn -0.3032 -0.9331 -0.1936
vn -0.5767 -0.7937 -0.1936
vn -0.7937 -0.5767 -0.1935
vn -0.9331 -0.3032 -0.1936
vn -0.9780 -0.0770 -0.1938
vn -0.9965 -0.0590 0.0590
vn 0.9965 -0.0590 0.0590
usemtl Yellow
s 1
f 5/1/1 9/2/2 7/3/3 8/4/4
f 11/5/5 15/6/6 14/7/7 13/8/8
f 5/1/1 11/5/5 13/8/8 9/2/2
f 23/9/9 17/10/10 19/11/11 25/12/12
f 26/13/13 23/9/9 25/12/12 28/14/14
f 29/15/15 26/13/13 28/14/14 31/16/16
f 32/17/17 29/15/15 31/16/16 34/18/18
f 20/19/19 32/17/17 34/18/18 22/20/20
f 75/21/21 69/22/22 71/23/23 77/24/24
f 78/25/25 75/21/21 77/24/24 80/26/26
f 81/27/27 78/25/25 80/26/26 83/28/28
f 84/29/29 81/27/27 83/28/28 86/30/30
f 72/31/31 84/29/29 86/30/30 74/32/32
f 69/22/22 20/19/19 22/20/20 71/23/23
f 17/10/10 5/1/1 8/4/4 19/11/11
f 74/32/32 15/6/6 11/5/5 72/31/31
f 17/10/10 23/9/9 26/13/13 29/15/15 32/17/17 20/19/19 69/22/22 75/21/21 78/25/25 81/27/27 84/29/29 72/31/31 11/5/5 5/1/1
usemtl Orange
f 3/33/33 6/34/34 7/3/3 9/2/2
f 10/35/35 13/36/8 14/37/7 16/38/36
f 9/2/2 13/36/8 10/35/35 3/33/33
f 106/39/37 118/40/38 120/41/39 108/42/40
f 118/40/38 115/43/41 117/44/42 120/41/39
f 115/43/41 112/45/43 114/46/44 117/44/42
f 112/45/43 109/47/45 111/48/46 114/46/44
f 109/47/45 103/49/47 105/50/48 111/48/46
f 57/51/49 51/52/50 53/53/51 59/54/52
f 60/55/53 57/51/49 59/54/52 62/56/54
f 63/57/55 60/55/53 62/56/54 65/58/56
f 66/59/57 63/57/55 65/58/56 68/60/58
f 54/61/59 66/59/57 68/60/58 56/62/60
f 3/33/33 54/61/59 56/62/60 6/34/34
f 51/52/50 106/39/37 108/42/40 53/53/51
f 16/38/36 105/50/48 103/49/47 10/35/35
f 51/52/50 57/51/49 60/55/53 63/57/55 66/59/57 54/61/59 3/33/33 10/35/35 103/49/47 109/47/45 112/45/43 115/43/41 118/40/38 106/39/37
usemtl Interior
f 4/63/61 8/4/4 7/3/3 6/34/34
f 12/64/62 16/65/36 14/66/7 15/67/6
f 38/68/63 41/69/64 40/70/65
f 41/69/64 39/71/66 40/70/65
f 90/72/67 93/73/68 92/74/69
f 93/73/68 91/75/70 92/74/69
f 101/76/71 87/77/72 89/78/73 102/79/74
f 102/80/74 89/81/73 88/82/75 100/83/76
f 108/84/40 120/85/39 119/86/77 107/87/78
f 98/88/79 101/76/71 102/79/74 99/89/80
f 99/90/80 102/80/74 100/83/76 97/91/81
f 120/85/39 117/92/42 116/93/82 119/86/77
f 95/94/83 98/88/79 99/89/80 96/95/84
f 96/96/84 99/90/80 97/91/81 94/97/85
f 117/92/42 114/98/44 113/99/86 116/93/82
f 90/72/67 95/94/83 96/95/84 93/100/68
f 93/100/68 96/95/84 94/101/85 91/102/70
f 114/103/44 111/104/46 110/105/87 113/106/86
f 111/104/46 105/107/48 104/108/88 110/105/87
f 25/12/12 19/11/11 18/109/89 24/110/90
f 28/14/14 25/12/12 24/110/90 27/111/91
f 38/68/63 42/112/92 44/113/93 41/114/64
f 41/114/64 44/113/93 43/115/94 39/116/66
f 31/16/16 28/14/14 27/111/91 30/117/95
f 42/112/92 45/118/96 47/119/97 44/113/93
f 44/113/93 47/119/97 46/120/98 43/115/94
f 34/18/18 31/16/16 30/117/95 33/121/99
f 45/118/96 48/122/100 50/123/101 47/119/97
f 47/119/97 50/123/101 49/124/102 46/120/98
f 22/20/20 34/18/18 33/121/99 21/125/103
f 48/122/100 35/126/104 37/127/105 50/123/101
f 50/123/101 37/127/105 36/128/106 49/124/102
f 77/129/24 71/130/23 70/131/107 76/132/108
f 80/133/26 77/129/24 76/132/108 79/134/109
f 83/135/28 80/133/26 79/134/109 82/136/110
f 86/137/30 83/135/28 82/136/110 85/138/111
f 74/139/32 86/137/30 85/138/111 73/140/112
f 59/54/52 53/53/51 52/141/113 58/142/114
f 62/56/54 59/54/52 58/142/114 61/143/115
f 65/58/56 62/56/54 61/143/115 64/144/116
f 68/60/58 65/58/56 64/144/116 67/145/117
f 56/62/60 68/60/58 67/145/117 55/146/118
f 35/126/104 88/82/75 89/81/73 37/127/105
f 37/127/105 89/78/73 87/77/72 36/128/106
f 71/130/23 22/20/20 21/125/103 70/131/107
f 19/11/11 8/4/4 4/63/61 18/109/89
f 6/34/34 56/62/60 55/146/118 4/63/61
f 73/140/112 12/64/62 15/67/6 74/139/32
f 53/53/51 108/84/40 107/87/78 52/141/113
f 12/64/62 104/108/88 105/107/48 16/65/36
f 1/147/119 18/109/89 4/63/61 55/146/118
f 104/108/88 12/64/62 73/140/112 2/148/120
f 18/109/89 1/147/119 40/70/65 39/116/66 24/110/90
f 33/121/99 49/124/102 36/128/106 21/125/103
f 87/77/72 70/131/107 21/125/103 36/128/106
f 24/110/90 39/116/66 43/115/94 27/111/91
f 27/111/91 43/115/94 46/120/98 30/117/95
f 30/117/95 46/120/98 49/124/102 33/121/99
f 52/141/113 35/126/104 48/122/100 58/142/114
f 88/82/75 35/126/104 52/141/113 107/87/78
f 67/145/117 38/68/63 40/70/65 1/147/119 55/146/118
f 64/144/116 42/112/92 38/68/63 67/145/117
f 61/143/115 45/118/96 42/112/92 64/144/116
f 58/142/114 48/122/100 45/118/96 61/143/115
f 70/131/107 87/77/72 101/76/71 76/132/108
f 85/138/111 90/72/67 92/74/69 2/148/120 73/140/112
f 76/132/108 101/76/71 98/88/79 79/134/109
f 79/134/109 98/88/79 95/94/83 82/136/110
f 82/136/110 95/94/83 90/72/67 85/138/111
f 88/82/75 107/87/78 119/86/77 100/83/76
f 94/101/85 113/106/86 110/105/87 91/102/70
f 92/74/69 91/102/70 110/105/87 104/108/88 2/148/120
f 97/91/81 116/93/82 113/99/86 94/97/85
f 100/83/76 119/86/77 116/93/82 97/91/81
