# Blender v3.6.23 OBJ File: 'FullCubePieces.blend'
# www.blender.org
mtllib e4.mtl
o e4_Cube.052
v 1.000607 -0.502339 0.503052
v -0.999393 -0.502339 0.503052
v 0.925607 1.000000 -0.924286
v 1.000607 0.925000 -0.924286
v 0.925607 0.925000 -0.999286
v 0.978640 0.978033 -0.924286
v 0.968908 0.968301 -0.967588
v 0.978640 0.925000 -0.977319
v 0.925607 0.978033 -0.977319
v -0.924393 1.000000 -0.924285
v -0.924393 0.925000 -0.999286
v -0.999393 0.925000 -0.924285
v -0.924393 0.978033 -0.977319
v -0.967694 0.968301 -0.967587
v -0.977426 0.925000 -0.977319
v -0.977426 0.978033 -0.924285
v 0.925607 -0.496436 -0.999286
v 1.000607 -0.502339 -0.924286
v 0.978640 -0.500610 -0.977320
v 0.497043 -0.925000 -0.999287
v 0.502946 -1.000000 -0.924286
v 0.501217 -0.978033 -0.977320
v 0.904031 -0.632659 -0.999287
v 0.976250 -0.656124 -0.924286
v 0.955097 -0.649252 -0.977320
v 0.844129 -0.750223 -0.999287
v 0.905562 -0.794857 -0.924286
v 0.887569 -0.781784 -0.977320
v 0.750830 -0.843522 -0.999287
v 0.795464 -0.904955 -0.924286
v 0.782391 -0.886962 -0.977320
v 0.633265 -0.903424 -0.999287
v 0.656731 -0.975643 -0.924286
v 0.649859 -0.954490 -0.977320
v 0.502947 -0.917111 1.000714
v 0.502947 -1.000000 0.917825
v 0.502947 -0.975722 0.976435
v 0.976250 -0.569755 0.656838
v 0.976250 -0.656124 0.570468
v 0.984597 -0.603422 0.604135
v 0.976250 -0.630827 0.631540
v 0.905563 -0.709051 0.795570
v 0.905563 -0.794857 0.709765
v 0.905563 -0.769725 0.770439
v 0.795464 -0.820352 0.905668
v 0.795464 -0.904955 0.821066
v 0.795464 -0.880176 0.880890
v 0.656731 -0.892151 0.976357
v 0.656731 -0.975644 0.892864
v 0.656731 -0.951189 0.951903
v 0.497044 1.000000 0.925714
v 0.502947 0.925000 1.000714
v 0.501218 0.978033 0.978747
v 0.925608 1.000000 0.497150
v 1.000607 0.925000 0.503053
v 0.978640 0.978033 0.501324
v 0.633267 1.000000 0.904138
v 0.656732 0.925000 0.976357
v 0.649860 0.978033 0.955204
v 0.750831 1.000000 0.844236
v 0.795465 0.925000 0.905669
v 0.782392 0.978033 0.887676
v 0.844130 1.000000 0.750937
v 0.905563 0.925000 0.795571
v 0.887570 0.978033 0.782498
v 0.904032 1.000000 0.633373
v 0.976251 0.925000 0.656838
v 0.955098 0.978033 0.649966
v -0.495829 -0.925000 -0.999287
v -0.501732 -1.000000 -0.924287
v -0.500003 -0.978033 -0.977320
v -0.924393 -0.496436 -0.999287
v -0.999393 -0.502339 -0.924286
v -0.977426 -0.500610 -0.977320
v -0.632052 -0.903424 -0.999287
v -0.655517 -0.975643 -0.924287
v -0.648645 -0.954490 -0.977320
v -0.749616 -0.843522 -0.999287
v -0.794250 -0.904955 -0.924287
v -0.781177 -0.886962 -0.977320
v -0.842915 -0.750223 -0.999287
v -0.904348 -0.794857 -0.924286
v -0.886355 -0.781784 -0.977320
v -0.902817 -0.632659 -0.999287
v -0.975036 -0.656124 -0.924286
v -0.953883 -0.649252 -0.977320
v -0.501731 -1.000000 0.917824
v -0.501731 -0.917111 1.000713
v -0.501731 -0.975722 0.976435
v -0.975036 -0.656124 0.570468
v -0.975035 -0.569755 0.656837
v -0.983383 -0.603421 0.604134
v -0.975036 -0.630827 0.631540
v -0.904347 -0.709051 0.795570
v -0.904347 -0.794857 0.709764
v -0.904347 -0.769725 0.770438
v -0.794250 -0.820352 0.905668
v -0.794250 -0.904955 0.821065
v -0.794250 -0.880175 0.880888
v -0.655516 -0.892151 0.976356
v -0.655516 -0.975643 0.892864
v -0.655516 -0.951189 0.951902
v -0.924392 1.000000 0.497151
v -0.999392 0.925000 0.503053
v -0.977426 0.978033 0.501324
v -0.495828 1.000000 0.925714
v -0.501731 0.925000 1.000714
v -0.500002 0.978033 0.978747
v -0.902816 1.000000 0.633373
v -0.975035 0.925000 0.656839
v -0.953882 0.978033 0.649966
v -0.842914 1.000000 0.750938
v -0.904347 0.925000 0.795571
v -0.886354 0.978033 0.782498
v -0.749615 1.000000 0.844236
v -0.794249 0.925000 0.905669
v -0.781176 0.978033 0.887676
v -0.632051 1.000000 0.904138
v -0.655516 0.925000 0.976357
v -0.648644 0.978033 0.955204
vt 0.615625 0.740625
vt 0.625000 0.740625
vt 0.625000 0.748679
vt 0.615625 0.750000
vt 0.615625 0.009375
vt 0.615625 0.000000
vt 0.621038 0.000000
vt 0.625000 0.009375
vt 0.417984 0.553921
vt 0.420495 0.546016
vt 0.424572 0.549572
vt 0.426556 0.542246
vt 0.428781 0.207016
vt 0.422200 0.204505
vt 0.424572 0.200428
vt 0.421410 0.198445
vt 0.388481 0.292984
vt 0.385361 0.312208
vt 0.375020 0.312084
vt 0.378586 0.291923
vt 0.166923 0.503586
vt 0.187083 0.500020
vt 0.187208 0.510361
vt 0.167984 0.513481
vt 0.187425 0.750058
vt 0.168007 0.750000
vt 0.167984 0.740625
vt 0.187208 0.740625
vt 0.397456 0.275643
vt 0.387307 0.271608
vt 0.148625 0.512964
vt 0.150643 0.522456
vt 0.150550 0.750000
vt 0.150643 0.740625
vt 0.403421 0.224357
vt 0.395115 0.222454
vt 0.125000 0.525643
vt 0.125000 0.536369
vt 0.125573 0.750000
vt 0.125000 0.740625
vt 0.417984 0.207016
vt 0.391469 0.213631
vt 0.417984 0.196219
vt 0.375960 0.000000
vt 0.417721 0.000000
vt 0.417985 0.009375
vt 0.375723 0.009375
vt 0.437382 0.000000
vt 0.437208 0.009375
vt 0.627744 0.543009
vt 0.625003 0.562383
vt 0.615625 0.562208
vt 0.618192 0.542984
vt 0.635439 0.525628
vt 0.625583 0.525643
vt 0.400643 0.536865
vt 0.402089 0.527089
vt 0.417984 0.542985
vt 0.411865 0.525643
vt 0.428921 0.542984
vt 0.647297 0.507031
vt 0.636273 0.506391
vt 0.368732 0.505516
vt 0.370678 0.495678
vt 0.380516 0.493732
vt 0.661996 0.496674
vt 0.650482 0.496151
vt 0.355738 0.493009
vt 0.355831 0.480831
vt 0.368009 0.480738
vt 0.664044 0.476679
vt 0.651962 0.476462
vt 0.344222 0.482161
vt 0.343968 0.468968
vt 0.357161 0.469222
vt 0.625000 0.293007
vt 0.625058 0.312425
vt 0.615625 0.312208
vt 0.615625 0.292984
vt 0.625000 0.275264
vt 0.615625 0.275643
vt 0.625000 0.224736
vt 0.615276 0.224357
vt 0.625000 0.206993
vt 0.615625 0.207016
vt 0.625000 0.187618
vt 0.615625 0.187792
vt 0.371674 0.786996
vt 0.351679 0.789044
vt 0.351462 0.776962
vt 0.371151 0.775482
vt 0.382030 0.772297
vt 0.381391 0.761273
vt 0.400628 0.760439
vt 0.400643 0.750583
vt 0.418009 0.752744
vt 0.417984 0.743192
vt 0.437383 0.750003
vt 0.437208 0.740625
vt 0.437208 0.562208
vt 0.437208 0.187792
vt 0.634302 0.740552
vt 0.629687 0.754687
vt 0.865569 0.740569
vt 0.875000 0.740625
vt 0.875000 0.746038
vt 0.865625 0.750000
vt 0.636001 0.545230
vt 0.633748 0.562393
vt 0.642412 0.529673
vt 0.652238 0.514911
vt 0.662933 0.503657
vt 0.670783 0.492123
vt 0.828893 0.511883
vt 0.811304 0.508625
vt 0.812596 0.499969
vt 0.831989 0.503108
vt 0.843641 0.519423
vt 0.849317 0.511936
vt 0.855310 0.531092
vt 0.863064 0.525683
vt 0.862793 0.545783
vt 0.871892 0.543011
vt 0.865472 0.562793
vt 0.874997 0.562384
vt 0.615552 0.759302
vt 0.615569 0.990569
vt 0.625000 0.990625
vt 0.625000 0.996038
vt 0.615625 1.000000
vt 0.383625 0.936304
vt 0.386883 0.953893
vt 0.378108 0.956989
vt 0.374969 0.937595
vt 0.394423 0.968641
vt 0.386936 0.974317
vt 0.406092 0.980310
vt 0.400683 0.988064
vt 0.420783 0.987793
vt 0.418011 0.996892
vt 0.437792 0.990472
vt 0.437384 0.999997
vt 0.378656 0.787933
vt 0.367123 0.795783
vt 0.389911 0.777238
vt 0.404673 0.767412
vt 0.420230 0.761001
vt 0.437393 0.758748
vn 0.9673 0.1794 -0.1794
vn 0.6965 0.1726 -0.6965
vn 0.5774 0.5773 -0.5774
vn 0.6965 0.6965 -0.1726
vn -0.9673 0.1794 -0.1794
vn -0.6965 0.6965 -0.1726
vn -0.5774 0.5774 -0.5773
vn -0.6965 0.1726 -0.6965
vn 0.9504 -0.0357 0.3088
vn 0.9569 -0.2053 0.2053
vn 0.9881 -0.1087 0.1087
vn 0.9504 -0.3088 0.0357
vn -0.9504 -0.3088 0.0357
vn -0.9569 -0.2053 0.2053
vn -0.9881 -0.1087 0.1087
vn -0.9504 -0.0357 0.3088
vn -0.3519 -0.9166 0.1899
vn -0.0922 -0.9751 0.2015
vn -0.1079 -0.7030 0.7030
vn -0.3943 -0.6498 0.6498
vn -0.0922 -0.2015 0.9751
vn -0.3519 -0.1899 0.9166
vn -0.0562 0.6984 0.7135
vn -0.2232 0.6916 0.6869
vn -0.3032 0.1936 0.9331
vn -0.0770 0.1938 0.9780
vn -0.6377 -0.7567 0.1441
vn -0.6918 -0.5106 0.5106
vn -0.6377 -0.1441 0.7567
vn -0.4245 0.6916 0.5843
vn -0.5767 0.1936 0.7937
vn -0.8374 -0.5388 0.0918
vn -0.8735 -0.3443 0.3443
vn -0.8374 -0.0918 0.5388
vn -0.5843 0.6916 0.4245
vn -0.7937 0.1936 0.5767
vn -0.6869 0.6916 0.2232
vn -0.9331 0.1936 0.3032
vn -0.7135 0.6984 0.0562
vn -0.9780 0.1938 0.0770
vn 0.6869 -0.2232 -0.6916
vn 0.7135 -0.0562 -0.6984
vn 0.9780 -0.0770 -0.1938
vn 0.9331 -0.3032 -0.1936
vn 0.5843 -0.4245 -0.6916
vn 0.7937 -0.5767 -0.1936
vn 0.8374 -0.0918 0.5388
vn 0.8735 -0.3443 0.3443
vn 0.8374 -0.5388 0.0918
vn 0.4245 -0.5843 -0.6916
vn 0.5767 -0.7937 -0.1936
vn 0.6377 -0.1441 0.7567
vn 0.6918 -0.5106 0.5106
vn 0.6377 -0.7567 0.1441
vn 0.2232 -0.6869 -0.6916
vn 0.3032 -0.9331 -0.1936
vn 0.3519 -0.1899 0.9166
vn 0.3943 -0.6498 0.6498
vn 0.3519 -0.9166 0.1899
vn 0.0562 -0.7135 -0.6984
vn 0.0770 -0.9780 -0.1938
vn 0.0922 -0.2015 0.9751
vn 0.1079 -0.7030 0.7030
vn 0.0922 -0.9751 0.2015
vn -0.2232 -0.6869 -0.6916
vn -0.0562 -0.7135 -0.6984
vn -0.0770 -0.9780 -0.1938
vn -0.3032 -0.9331 -0.1936
vn -0.4245 -0.5843 -0.6916
vn -0.5767 -0.7937 -0.1936
vn -0.5843 -0.4245 -0.6916
vn -0.7937 -0.5767 -0.1935
vn -0.6869 -0.2232 -0.6916
vn -0.9331 -0.3032 -0.1936
vn -0.7135 -0.0562 -0.6984
vn -0.9780 -0.0770 -0.1938
vn 0.2232 0.6916 0.6869
vn 0.0562 0.6984 0.7135
vn 0.0770 0.1938 0.9780
vn 0.3032 0.1936 0.9331
vn 0.4245 0.6916 0.5843
vn 0.5767 0.1936 0.7937
vn 0.5843 0.6916 0.4245
vn 0.7937 0.1936 0.5767
vn 0.6869 0.6916 0.2232
vn 0.9331 0.1936 0.3032
vn 0.7135 0.6984 0.0562
vn 0.9780 0.1938 0.0770
vn 0.9965 -0.0590 0.0590
vn -0.9965 -0.0590 0.0590
vn 0.1794 0.1794 -0.9673
vn 0.1726 0.6965 -0.6965
vn -0.1794 0.1794 -0.9673
vn -0.1726 0.6965 -0.6965
vn 0.2010 -0.0653 -0.9774
vn 0.2033 -0.0160 -0.9790
vn 0.1710 -0.1242 -0.9774
vn 0.1242 -0.1710 -0.9774
vn 0.0653 -0.2010 -0.9774
vn 0.0160 -0.2033 -0.9790
vn -0.0653 -0.2010 -0.9774
vn -0.0160 -0.2033 -0.9790
vn -0.1242 -0.1710 -0.9774
vn -0.1710 -0.1242 -0.9774
vn -0.2010 -0.0653 -0.9774
vn -0.2033 -0.0160 -0.9790
vn 0.1794 0.9673 -0.1794
vn -0.1794 0.9673 -0.1794
vn -0.0160 0.9790 0.2033
vn -0.0653 0.9774 0.2010
vn -0.1242 0.9774 0.1710
vn -0.1710 0.9774 0.1242
vn -0.2010 0.9774 0.0653
vn -0.2032 0.9790 0.0160
vn 0.0653 0.9774 0.2010
vn 0.0160 0.9790 0.2033
vn 0.1242 0.9774 0.1710
vn 0.1710 0.9774 0.1242
vn 0.2010 0.9774 0.0653
vn 0.2033 0.9790 0.0160
usemtl Interior
s 1
f 4/1/1 8/2/2 7/3/3 6/4/4
f 12/5/5 16/6/6 14/7/7 15/8/8
f 38/9/9 41/10/10 40/11/11
f 41/10/10 39/12/12 40/11/11
f 90/13/13 93/14/14 92/15/15
f 93/14/14 91/16/16 92/15/15
f 101/17/17 87/18/18 89/19/19 102/20/20
f 102/21/20 89/22/19 88/23/21 100/24/22
f 108/25/23 120/26/24 119/27/25 107/28/26
f 98/29/27 101/17/17 102/20/20 99/30/28
f 99/31/28 102/21/20 100/24/22 97/32/29
f 120/26/24 117/33/30 116/34/31 119/27/25
f 95/35/32 98/29/27 99/30/28 96/36/33
f 96/37/33 99/31/28 97/32/29 94/38/34
f 117/33/30 114/39/35 113/40/36 116/34/31
f 90/13/13 95/35/32 96/36/33 93/41/14
f 93/41/14 96/36/33 94/42/34 91/43/16
f 114/44/35 111/45/37 110/46/38 113/47/36
f 111/45/37 105/48/39 104/49/40 110/46/38
f 25/50/41 19/51/42 18/52/43 24/53/44
f 28/54/45 25/50/41 24/53/44 27/55/46
f 38/9/9 42/56/47 44/57/48 41/58/10
f 41/58/10 44/57/48 43/59/49 39/60/12
f 31/61/50 28/54/45 27/55/46 30/62/51
f 42/56/47 45/63/52 47/64/53 44/57/48
f 44/57/48 47/64/53 46/65/54 43/59/49
f 34/66/55 31/61/50 30/62/51 33/67/56
f 45/63/52 48/68/57 50/69/58 47/64/53
f 47/64/53 50/69/58 49/70/59 46/65/54
f 22/71/60 34/66/55 33/67/56 21/72/61
f 48/68/57 35/73/62 37/74/63 50/69/58
f 50/69/58 37/74/63 36/75/64 49/70/59
f 77/76/65 71/77/66 70/78/67 76/79/68
f 80/80/69 77/76/65 76/79/68 79/81/70
f 83/82/71 80/80/69 79/81/70 82/83/72
f 86/84/73 83/82/71 82/83/72 85/85/74
f 74/86/75 86/84/73 85/85/74 73/87/76
f 59/88/77 53/89/78 52/90/79 58/91/80
f 62/92/81 59/88/77 58/91/80 61/93/82
f 65/94/83 62/92/81 61/93/82 64/95/84
f 68/96/85 65/94/83 64/95/84 67/97/86
f 56/98/87 68/96/85 67/97/86 55/99/88
f 35/73/62 88/23/21 89/22/19 37/74/63
f 37/74/63 89/19/19 87/18/18 36/75/64
f 71/77/66 22/71/60 21/72/61 70/78/67
f 19/51/42 8/2/2 4/1/1 18/52/43
f 6/4/4 56/98/87 55/99/88 4/1/1
f 73/87/76 12/5/5 15/8/8 74/86/75
f 53/89/78 108/25/23 107/28/26 52/90/79
f 12/5/5 104/49/40 105/48/39 16/6/6
f 1/100/89 18/52/43 4/1/1 55/99/88
f 104/49/40 12/5/5 73/87/76 2/101/90
f 18/52/43 1/100/89 40/11/11 39/60/12 24/53/44
f 33/67/56 49/70/59 36/75/64 21/72/61
f 87/18/18 70/78/67 21/72/61 36/75/64
f 24/53/44 39/60/12 43/59/49 27/55/46
f 27/55/46 43/59/49 46/65/54 30/62/51
f 30/62/51 46/65/54 49/70/59 33/67/56
f 52/90/79 35/73/62 48/68/57 58/91/80
f 88/23/21 35/73/62 52/90/79 107/28/26
f 67/97/86 38/9/9 40/11/11 1/100/89 55/99/88
f 64/95/84 42/56/47 38/9/9 67/97/86
f 61/93/82 45/63/52 42/56/47 64/95/84
f 58/91/80 48/68/57 45/63/52 61/93/82
f 70/78/67 87/18/18 101/17/17 76/79/68
f 85/85/74 90/13/13 92/15/15 2/101/90 73/87/76
f 76/79/68 101/17/17 98/29/27 79/81/70
f 79/81/70 98/29/27 95/35/32 82/83/72
f 82/83/72 95/35/32 90/13/13 85/85/74
f 88/23/21 107/28/26 119/27/25 100/24/22
f 94/42/34 113/47/36 110/46/38 91/43/16
f 92/15/15 91/43/16 110/46/38 104/49/40 2/101/90
f 97/32/29 116/34/31 113/40/36 94/38/34
f 100/24/22 119/27/25 116/34/31 97/32/29
usemtl Orange
f 5/102/91 9/103/92 7/3/3 8/2/2
f 11/104/93 15/105/8 14/106/7 13/107/94
f 5/102/91 11/104/93 13/107/94 9/103/92
f 23/108/95 17/109/96 19/51/42 25/50/41
f 26/110/97 23/108/95 25/50/41 28/54/45
f 29/111/98 26/110/97 28/54/45 31/61/50
f 32/112/99 29/111/98 31/61/50 34/66/55
f 20/113/100 32/112/99 34/66/55 22/71/60
f 75/114/101 69/115/102 71/116/66 77/117/65
f 78/118/103 75/114/101 77/117/65 80/119/69
f 81/120/104 78/118/103 80/119/69 83/121/71
f 84/122/105 81/120/104 83/121/71 86/123/73
f 72/124/106 84/122/105 86/123/73 74/125/75
f 69/115/102 20/113/100 22/71/60 71/116/66
f 17/109/96 5/102/91 8/2/2 19/51/42
f 74/125/75 15/105/8 11/104/93 72/124/106
f 17/109/96 23/108/95 26/110/97 29/111/98 32/112/99 20/113/100 69/115/102 75/114/101 78/118/103 81/120/104 84/122/105 72/124/106 11/104/93 5/102/91
usemtl Blue
f 3/126/107 6/4/4 7/3/3 9/103/92
f 10/127/108 13/128/94 14/129/7 16/130/6
f 9/103/92 13/128/94 10/127/108 3/126/107
f 106/131/109 118/132/110 120/133/24 108/134/23
f 118/132/110 115/135/111 117/136/30 120/133/24
f 115/135/111 112/137/112 114/138/35 117/136/30
f 112/137/112 109/139/113 111/140/37 114/138/35
f 109/139/113 103/141/114 105/142/39 111/140/37
f 57/143/115 51/144/116 53/89/78 59/88/77
f 60/145/117 57/143/115 59/88/77 62/92/81
f 63/146/118 60/145/117 62/92/81 65/94/83
f 66/147/119 63/146/118 65/94/83 68/96/85
f 54/148/120 66/147/119 68/96/85 56/98/87
f 3/126/107 54/148/120 56/98/87 6/4/4
f 51/144/116 106/131/109 108/134/23 53/89/78
f 16/130/6 105/142/39 103/141/114 10/127/108
f 51/144/116 57/143/115 60/145/117 63/146/118 66/147/119 54/148/120 3/126/107 10/127/108 103/141/114 109/139/113 112/137/112 115/135/111 118/132/110 106/131/109
