# Blender v3.6.23 OBJ File: 'FullCubePieces.blend'
# www.blender.org
mtllib f0.mtl
o f0_Cube.057
v 0.925713 0.999392 -0.533592
v 1.000713 0.924392 -0.539494
v 0.978746 0.977425 -0.537766
v 0.534305 0.999392 -0.925000
v 0.540207 0.924392 -1.000000
v 0.538479 0.977425 -0.978033
v 0.905956 0.999392 -0.658332
v 0.978174 0.924392 -0.681798
v 0.957022 0.977425 -0.674925
v 0.851332 0.999392 -0.765539
v 0.912764 0.924392 -0.810173
v 0.894771 0.977425 -0.797100
v 0.766252 0.999392 -0.850618
v 0.810886 0.924392 -0.912051
v 0.797813 0.977425 -0.894058
v 0.659046 0.999392 -0.905243
v 0.682511 0.924392 -0.977461
v 0.675639 0.977425 -0.956309
v 0.534305 -1.000608 -0.925000
v 0.540207 -0.925608 -1.000000
v 0.538479 -0.978641 -0.978033
v 0.925713 -1.000608 -0.533592
v 1.000713 -0.925608 -0.539494
v 0.978746 -0.978641 -0.537765
v 0.659046 -1.000608 -0.905242
v 0.682511 -0.925608 -0.977460
v 0.675639 -0.978641 -0.956308
v 0.766252 -1.000608 -0.850618
v 0.810886 -0.925608 -0.912051
v 0.797813 -0.978641 -0.894058
v 0.851332 -1.000608 -0.765539
v 0.912764 -0.925608 -0.810173
v 0.894771 -0.978641 -0.797100
v 0.905956 -1.000608 -0.658332
v 0.978174 -0.925608 -0.681797
v 0.957022 -0.978641 -0.674925
v 0.534305 0.999392 0.925000
v 0.540207 0.924392 1.000000
v 0.538479 0.977425 0.978033
v 0.925713 0.999392 0.533593
v 1.000713 0.924392 0.539494
v 0.978746 0.977425 0.537766
v 0.659046 0.999392 0.905243
v 0.682511 0.924392 0.977461
v 0.675639 0.977425 0.956309
v 0.766252 0.999392 0.850619
v 0.810886 0.924392 0.912052
v 0.797813 0.977425 0.894059
v 0.851332 0.999392 0.765540
v 0.912764 0.924392 0.810173
v 0.894771 0.977425 0.797100
v 0.905956 0.999392 0.658333
v 0.978174 0.924392 0.681798
v 0.957022 0.977425 0.674926
v 0.925713 -1.000608 0.533593
v 1.000713 -0.925608 0.539495
v 0.978746 -0.978641 0.537767
v 0.534305 -1.000608 0.925001
v 0.540207 -0.925608 1.000000
v 0.538479 -0.978641 0.978034
v 0.905956 -1.000608 0.658333
v 0.978174 -0.925608 0.681799
v 0.957022 -0.978641 0.674926
v 0.851332 -1.000608 0.765540
v 0.912764 -0.925608 0.810174
v 0.894771 -0.978641 0.797101
v 0.766252 -1.000608 0.850619
v 0.810886 -0.925608 0.912052
v 0.797813 -0.978641 0.894059
v 0.659046 -1.000608 0.905243
v 0.682511 -0.925608 0.977461
v 0.675639 -0.978641 0.956309
v -0.532879 0.999392 -0.925000
v -0.538781 0.924392 -1.000000
v -0.537053 0.977425 -0.978033
v -0.924287 0.999392 -0.533592
v -0.999287 0.924392 -0.539494
v -0.977320 0.977425 -0.537766
v -0.657620 0.999392 -0.905243
v -0.681085 0.924392 -0.977461
v -0.674213 0.977425 -0.956309
v -0.764826 0.999392 -0.850619
v -0.809460 0.924392 -0.912051
v -0.796387 0.977425 -0.894058
v -0.849906 0.999392 -0.765539
v -0.911338 0.924392 -0.810173
v -0.893345 0.977425 -0.797100
v -0.904530 0.999392 -0.658333
v -0.976748 0.924392 -0.681798
v -0.955596 0.977425 -0.674926
v -0.924287 -1.000608 -0.533592
v -0.999287 -0.925608 -0.539494
v -0.977320 -0.978641 -0.537766
v -0.532879 -1.000608 -0.925000
v -0.538781 -0.925608 -1.000000
v -0.537053 -0.978641 -0.978033
v -0.904530 -1.000608 -0.658333
v -0.976748 -0.925608 -0.681798
v -0.955596 -0.978641 -0.674926
v -0.849906 -1.000608 -0.765539
v -0.911338 -0.925608 -0.810173
v -0.893345 -0.978641 -0.797100
v -0.764826 -1.000608 -0.850619
v -0.809460 -0.925608 -0.912051
v -0.796387 -0.978641 -0.894058
v -0.657620 -1.000608 -0.905243
v -0.681085 -0.925608 -0.977461
v -0.674213 -0.978641 -0.956309
v -0.924287 0.999392 0.533592
v -0.999287 0.924392 0.539494
v -0.977320 0.977426 0.537766
v -0.532879 0.999392 0.925000
v -0.538781 0.924392 1.000000
v -0.537053 0.977425 0.978033
v -0.904530 0.999392 0.658333
v -0.976748 0.924392 0.681798
v -0.955596 0.977426 0.674926
v -0.849906 0.999392 0.765539
v -0.911338 0.924392 0.810173
v -0.893345 0.977426 0.797100
v -0.764826 0.999392 0.850619
v -0.809460 0.924392 0.912051
v -0.796387 0.977426 0.894058
v -0.657620 0.999392 0.905243
v -0.681085 0.924392 0.977461
v -0.674213 0.977426 0.956309
v -0.532879 -1.000607 0.925000
v -0.538781 -0.925608 1.000000
v -0.537053 -0.978641 0.978033
v -0.924287 -1.000608 0.533592
v -0.999287 -0.925607 0.539494
v -0.977320 -0.978641 0.537766
v -0.657620 -1.000607 0.905243
v -0.681085 -0.925608 0.977461
v -0.674213 -0.978641 0.956309
v -0.764826 -1.000607 0.850619
v -0.809460 -0.925608 0.912051
v -0.796387 -0.978641 0.894058
v -0.849906 -1.000608 0.765539
v -0.911339 -0.925608 0.810173
v -0.893345 -0.978641 0.797100
v -0.904530 -1.000608 0.658333
v -0.976748 -0.925608 0.681798
v -0.955596 -0.978641 0.674926
vt 0.635599 0.542098
vt 0.633545 0.557857
vt 0.625003 0.557731
vt 0.627502 0.539800
vt 0.641432 0.527854
vt 0.634596 0.523713
vt 0.650399 0.514428
vt 0.645643 0.506526
vt 0.659998 0.503972
vt 0.659385 0.497087
vt 0.666849 0.493079
vt 0.660131 0.477404
vt 0.815925 0.741197
vt 0.832020 0.738248
vt 0.835198 0.747120
vt 0.817236 0.750028
vt 0.845474 0.731373
vt 0.851232 0.738951
vt 0.856115 0.720732
vt 0.863951 0.726232
vt 0.862932 0.707333
vt 0.872120 0.710198
vt 0.865370 0.691747
vt 0.874996 0.692268
vt 0.659998 0.746028
vt 0.666849 0.756921
vt 0.660131 0.772596
vt 0.659385 0.752913
vt 0.650399 0.735572
vt 0.645643 0.743474
vt 0.641431 0.722146
vt 0.634596 0.726287
vt 0.635599 0.707902
vt 0.627502 0.710200
vt 0.633545 0.692143
vt 0.625003 0.692269
vt 0.832020 0.511752
vt 0.815925 0.508803
vt 0.817236 0.499972
vt 0.835198 0.502880
vt 0.845474 0.518627
vt 0.851232 0.511049
vt 0.856115 0.529268
vt 0.863951 0.523768
vt 0.862932 0.542667
vt 0.872120 0.539802
vt 0.865370 0.558253
vt 0.874996 0.557732
vt 0.615625 0.557563
vt 0.617888 0.539775
vt 0.366455 0.557857
vt 0.364401 0.542099
vt 0.372498 0.539800
vt 0.374997 0.557731
vt 0.382112 0.539775
vt 0.384375 0.557563
vt 0.624457 0.523728
vt 0.358569 0.527854
vt 0.365404 0.523713
vt 0.375543 0.523728
vt 0.634688 0.506429
vt 0.349601 0.514428
vt 0.354357 0.506526
vt 0.365312 0.506428
vt 0.647580 0.497217
vt 0.340002 0.503971
vt 0.340615 0.497087
vt 0.352420 0.497217
vt 0.648042 0.477482
vt 0.333151 0.493079
vt 0.339869 0.477404
vt 0.351958 0.477482
vt 0.167980 0.738248
vt 0.184075 0.741197
vt 0.182764 0.750028
vt 0.164802 0.747120
vt 0.375000 0.960202
vt 0.374950 0.942221
vt 0.384375 0.942437
vt 0.384375 0.960225
vt 0.625050 0.942221
vt 0.625000 0.960202
vt 0.615625 0.960225
vt 0.615625 0.942437
vt 0.154526 0.731373
vt 0.148768 0.738951
vt 0.375000 0.976364
vt 0.384375 0.976272
vt 0.625000 0.976364
vt 0.615625 0.976272
vt 0.143885 0.720732
vt 0.136049 0.726232
vt 0.375000 0.999427
vt 0.384375 1.000000
vt 0.625000 0.999427
vt 0.615625 1.000000
vt 0.137068 0.707333
vt 0.127880 0.710198
vt 0.375000 0.039512
vt 0.375000 0.000960
vt 0.384375 0.000000
vt 0.384375 0.039775
vt 0.625000 0.000960
vt 0.625000 0.039512
vt 0.615625 0.039775
vt 0.615625 0.000000
vt 0.134630 0.691747
vt 0.125004 0.692268
vt 0.375000 0.057729
vt 0.384375 0.057563
vt 0.625000 0.057729
vt 0.615625 0.057563
vt 0.648042 0.772518
vt 0.647580 0.752783
vt 0.333151 0.756921
vt 0.340002 0.746028
vt 0.340615 0.752913
vt 0.339869 0.772596
vt 0.352420 0.752783
vt 0.351958 0.772518
vt 0.634688 0.743572
vt 0.349601 0.735572
vt 0.354357 0.743474
vt 0.365312 0.743571
vt 0.624457 0.726272
vt 0.358569 0.722146
vt 0.365404 0.726287
vt 0.375543 0.726272
vt 0.617888 0.710225
vt 0.364401 0.707902
vt 0.372498 0.710200
vt 0.382112 0.710225
vt 0.615625 0.692437
vt 0.366455 0.692143
vt 0.374997 0.692269
vt 0.384375 0.692437
vt 0.625000 0.289797
vt 0.625050 0.307779
vt 0.615625 0.307563
vt 0.615625 0.289775
vt 0.184075 0.508803
vt 0.167980 0.511752
vt 0.164802 0.502880
vt 0.182764 0.499972
vt 0.374950 0.307779
vt 0.375000 0.289797
vt 0.384375 0.289775
vt 0.384375 0.307563
vt 0.625000 0.273349
vt 0.615625 0.273728
vt 0.154526 0.518627
vt 0.148768 0.511049
vt 0.375000 0.273349
vt 0.384375 0.273728
vt 0.625000 0.226651
vt 0.615625 0.226272
vt 0.143885 0.529268
vt 0.136049 0.523768
vt 0.375000 0.226651
vt 0.384375 0.226272
vt 0.625000 0.210203
vt 0.615625 0.210225
vt 0.137068 0.542667
vt 0.127880 0.539802
vt 0.375000 0.210203
vt 0.384375 0.210225
vt 0.625000 0.192271
vt 0.615625 0.192437
vt 0.134630 0.558253
vt 0.125004 0.557732
vt 0.375000 0.192271
vt 0.384375 0.192437
vn 0.2010 0.9774 -0.0653
vn 0.2033 0.9790 -0.0160
vn 0.7135 0.6984 -0.0562
vn 0.6869 0.6916 -0.2232
vn 0.1710 0.9774 -0.1242
vn 0.5843 0.6916 -0.4245
vn 0.1242 0.9774 -0.1710
vn 0.4245 0.6916 -0.5843
vn 0.0653 0.9774 -0.2010
vn 0.2232 0.6916 -0.6869
vn 0.0160 0.9790 -0.2033
vn 0.0562 0.6984 -0.7135
vn -0.0160 0.9790 0.2033
vn -0.0653 0.9774 0.2010
vn -0.2232 0.6916 0.6869
vn -0.0562 0.6984 0.7135
vn -0.1242 0.9774 0.1710
vn -0.4245 0.6916 0.5843
vn -0.1710 0.9774 0.1242
vn -0.5843 0.6916 0.4245
vn -0.2010 0.9774 0.0653
vn -0.6869 0.6916 0.2232
vn -0.2033 0.9790 0.0160
vn -0.7135 0.6984 0.0562
vn 0.0653 0.9774 0.2010
vn 0.0160 0.9790 0.2033
vn 0.0562 0.6984 0.7135
vn 0.2232 0.6916 0.6869
vn 0.1242 0.9774 0.1710
vn 0.4245 0.6916 0.5843
vn 0.1710 0.9774 0.1242
vn 0.5843 0.6916 0.4245
vn 0.2010 0.9774 0.0653
vn 0.6869 0.6916 0.2232
vn 0.2033 0.9790 0.0160
vn 0.7135 0.6984 0.0562
vn -0.0653 0.9774 -0.2010
vn -0.0160 0.9790 -0.2033
vn -0.0562 0.6984 -0.7135
vn -0.2232 0.6916 -0.6869
vn -0.1242 0.9774 -0.1710
vn -0.4245 0.6916 -0.5843
vn -0.1710 0.9774 -0.1242
vn -0.5843 0.6916 -0.4245
vn -0.2010 0.9774 -0.0653
vn -0.6869 0.6916 -0.2232
vn -0.2033 0.9790 -0.0160
vn -0.7135 0.6984 -0.0562
vn 0.9780 0.1938 -0.0770
vn 0.9331 0.1935 -0.3032
vn 0.2032 -0.9790 -0.0160
vn 0.2010 -0.9774 -0.0653
vn 0.6869 -0.6916 -0.2232
vn 0.7135 -0.6984 -0.0562
vn 0.9331 -0.1935 -0.3032
vn 0.9780 -0.1938 -0.0770
vn 0.7937 0.1935 -0.5767
vn 0.1710 -0.9774 -0.1242
vn 0.5843 -0.6916 -0.4245
vn 0.7937 -0.1935 -0.5767
vn 0.5767 0.1935 -0.7937
vn 0.1242 -0.9774 -0.1710
vn 0.4245 -0.6916 -0.5843
vn 0.5767 -0.1935 -0.7937
vn 0.3032 0.1935 -0.9331
vn 0.0653 -0.9774 -0.2010
vn 0.2232 -0.6916 -0.6869
vn 0.3032 -0.1935 -0.9331
vn 0.0770 0.1938 -0.9780
vn 0.0160 -0.9790 -0.2033
vn 0.0562 -0.6984 -0.7135
vn 0.0770 -0.1938 -0.9780
vn -0.0653 -0.9774 0.2010
vn -0.0160 -0.9790 0.2032
vn -0.0562 -0.6984 0.7135
vn -0.2232 -0.6916 0.6869
vn -0.0770 -0.1938 0.9780
vn -0.3032 -0.1935 0.9331
vn -0.3032 0.1935 0.9331
vn -0.0770 0.1938 0.9780
vn -0.1242 -0.9774 0.1710
vn -0.4245 -0.6916 0.5843
vn -0.5767 -0.1935 0.7937
vn -0.5767 0.1935 0.7937
vn -0.1710 -0.9774 0.1242
vn -0.5843 -0.6916 0.4245
vn -0.7937 -0.1936 0.5767
vn -0.7937 0.1936 0.5767
vn -0.2010 -0.9774 0.0653
vn -0.6869 -0.6916 0.2232
vn -0.9331 -0.1935 0.3032
vn -0.9331 0.1935 0.3032
vn -0.2033 -0.9790 0.0160
vn -0.7135 -0.6984 0.0562
vn -0.9780 -0.1938 0.0770
vn -0.9780 0.1938 0.0770
vn 0.0770 0.1938 0.9780
vn 0.3032 0.1935 0.9331
vn 0.0160 -0.9790 0.2033
vn 0.0653 -0.9774 0.2010
vn 0.2232 -0.6916 0.6869
vn 0.0562 -0.6984 0.7135
vn 0.3032 -0.1935 0.9331
vn 0.0770 -0.1938 0.9780
vn 0.5767 0.1935 0.7937
vn 0.1242 -0.9774 0.1710
vn 0.4245 -0.6916 0.5843
vn 0.5767 -0.1935 0.7937
vn 0.7937 0.1935 0.5767
vn 0.1710 -0.9774 0.1242
vn 0.5843 -0.6916 0.4245
vn 0.7937 -0.1935 0.5767
vn 0.9331 0.1935 0.3032
vn 0.2010 -0.9774 0.0653
vn 0.6869 -0.6916 0.2232
vn 0.9331 -0.1935 0.3032
vn 0.9780 0.1938 0.0770
vn 0.2032 -0.9790 0.0160
vn 0.7135 -0.6984 0.0562
vn 0.9780 -0.1938 0.0770
vn -0.0770 0.1938 -0.9780
vn -0.3032 0.1935 -0.9331
vn -0.0160 -0.9790 -0.2033
vn -0.0653 -0.9774 -0.2010
vn -0.2232 -0.6916 -0.6869
vn -0.0562 -0.6984 -0.7135
vn -0.3032 -0.1935 -0.9331
vn -0.0770 -0.1938 -0.9780
vn -0.5767 0.1935 -0.7937
vn -0.1242 -0.9774 -0.1710
vn -0.4245 -0.6916 -0.5843
vn -0.5767 -0.1935 -0.7937
vn -0.7937 0.1936 -0.5767
vn -0.1710 -0.9774 -0.1242
vn -0.5843 -0.6916 -0.4245
vn -0.7937 -0.1936 -0.5767
vn -0.9331 0.1935 -0.3032
vn -0.2010 -0.9774 -0.0653
vn -0.6869 -0.6916 -0.2232
vn -0.9331 -0.1935 -0.3032
vn -0.9780 0.1938 -0.0770
vn -0.2033 -0.9790 -0.0160
vn -0.7135 -0.6984 -0.0562
vn -0.9780 -0.1938 -0.0770
usemtl White
s 1
f 7/1/1 1/2/2 3/3/3 9/4/4
f 10/5/5 7/1/1 9/4/4 12/6/6
f 13/7/7 10/5/5 12/6/6 15/8/8
f 16/9/9 13/7/7 15/8/8 18/10/10
f 4/11/11 16/9/9 18/10/10 6/12/12
f 112/13/13 124/14/14 126/15/15 114/16/16
f 124/14/14 121/17/17 123/18/18 126/15/15
f 121/17/17 118/19/19 120/20/20 123/18/18
f 118/19/19 115/21/21 117/22/22 120/20/20
f 115/21/21 109/23/23 111/24/24 117/22/22
f 43/25/25 37/26/26 39/27/27 45/28/28
f 46/29/29 43/25/25 45/28/28 48/30/30
f 49/31/31 46/29/29 48/30/30 51/32/32
f 52/33/33 49/31/31 51/32/32 54/34/34
f 40/35/35 52/33/33 54/34/34 42/36/36
f 79/37/37 73/38/38 75/39/39 81/40/40
f 82/41/41 79/37/37 81/40/40 84/42/42
f 85/43/43 82/41/41 84/42/42 87/44/44
f 88/45/45 85/43/43 87/44/44 90/46/46
f 76/47/47 88/45/45 90/46/46 78/48/48
f 73/38/38 4/11/11 6/12/12 75/39/39
f 1/2/2 40/35/35 42/36/36 3/3/3
f 78/48/48 111/24/24 109/23/23 76/47/47
f 114/16/16 39/27/27 37/26/26 112/13/13
f 1/2/2 7/1/1 10/5/5 13/7/7 16/9/9 4/11/11 73/38/38 79/37/37 82/41/41 85/43/43 88/45/45 76/47/47 109/23/23 115/21/21 118/19/19 121/17/17 124/14/14 112/13/13 37/26/26 43/25/25 46/29/29 49/31/31 52/33/33 40/35/35
usemtl Interior
f 9/4/4 3/3/3 2/49/49 8/50/50
f 22/51/51 34/52/52 36/53/53 24/54/54
f 24/54/54 36/53/53 35/55/55 23/56/56
f 12/6/6 9/4/4 8/50/50 11/57/57
f 34/52/52 31/58/58 33/59/59 36/53/53
f 36/53/53 33/59/59 32/60/60 35/55/55
f 15/8/8 12/6/6 11/57/57 14/61/61
f 31/58/58 28/62/62 30/63/63 33/59/59
f 33/59/59 30/63/63 29/64/64 32/60/60
f 18/10/10 15/8/8 14/61/61 17/65/65
f 28/62/62 25/66/66 27/67/67 30/63/63
f 30/63/63 27/67/67 26/68/68 29/64/64
f 6/12/12 18/10/10 17/65/65 5/69/69
f 25/66/66 19/70/70 21/71/71 27/67/67
f 27/67/67 21/71/71 20/72/72 26/68/68
f 133/73/73 127/74/74 129/75/75 135/76/76
f 135/77/76 129/78/75 128/79/77 134/80/78
f 114/81/16 126/82/15 125/83/79 113/84/80
f 136/85/81 133/73/73 135/76/76 138/86/82
f 138/87/82 135/77/76 134/80/78 137/88/83
f 126/82/15 123/89/18 122/90/84 125/83/79
f 139/91/85 136/85/81 138/86/82 141/92/86
f 141/93/86 138/87/82 137/88/83 140/94/87
f 123/89/18 120/95/20 119/96/88 122/90/84
f 142/97/89 139/91/85 141/92/86 144/98/90
f 144/99/90 141/100/86 140/101/87 143/102/91
f 120/103/20 117/104/22 116/105/92 119/106/88
f 130/107/93 142/97/89 144/98/90 132/108/94
f 132/109/94 144/99/90 143/102/91 131/110/95
f 117/104/22 111/111/24 110/112/96 116/105/92
f 45/28/28 39/27/27 38/113/97 44/114/98
f 58/115/99 70/116/100 72/117/101 60/118/102
f 60/118/102 72/117/101 71/119/103 59/120/104
f 48/30/30 45/28/28 44/114/98 47/121/105
f 70/116/100 67/122/106 69/123/107 72/117/101
f 72/117/101 69/123/107 68/124/108 71/119/103
f 51/32/32 48/30/30 47/121/105 50/125/109
f 67/122/106 64/126/110 66/127/111 69/123/107
f 69/123/107 66/127/111 65/128/112 68/124/108
f 54/34/34 51/32/32 50/125/109 53/129/113
f 64/126/110 61/130/114 63/131/115 66/127/111
f 66/127/111 63/131/115 62/132/116 65/128/112
f 42/36/36 54/34/34 53/129/113 41/133/117
f 61/130/114 55/134/118 57/135/119 63/131/115
f 63/131/115 57/135/119 56/136/120 62/132/116
f 81/137/40 75/138/39 74/139/121 80/140/122
f 94/141/123 106/142/124 108/143/125 96/144/126
f 96/145/126 108/146/125 107/147/127 95/148/128
f 84/149/42 81/137/40 80/140/122 83/150/129
f 106/142/124 103/151/130 105/152/131 108/143/125
f 108/146/125 105/153/131 104/154/132 107/147/127
f 87/155/44 84/149/42 83/150/129 86/156/133
f 103/151/130 100/157/134 102/158/135 105/152/131
f 105/153/131 102/159/135 101/160/136 104/154/132
f 90/161/46 87/155/44 86/156/133 89/162/137
f 100/157/134 97/163/138 99/164/139 102/158/135
f 102/159/135 99/165/139 98/166/140 101/160/136
f 78/167/48 90/161/46 89/162/137 77/168/141
f 97/163/138 91/169/142 93/170/143 99/164/139
f 99/165/139 93/171/143 92/172/144 98/166/140
f 19/70/70 94/141/123 96/144/126 21/71/71
f 21/71/71 96/145/126 95/148/128 20/72/72
f 75/138/39 6/12/12 5/69/69 74/139/121
f 55/134/118 22/51/51 24/54/54 57/135/119
f 57/135/119 24/54/54 23/56/56 56/136/120
f 3/3/3 42/36/36 41/133/117 2/49/49
f 77/168/141 110/112/96 111/111/24 78/167/48
f 113/84/80 38/113/97 39/27/27 114/81/16
f 131/110/95 92/172/144 93/171/143 132/109/94
f 132/108/94 93/170/143 91/169/142 130/107/93
f 59/120/104 128/79/77 129/78/75 60/118/102
f 60/118/102 129/75/75 127/74/74 58/115/99
f 2/49/49 23/56/56 35/55/55 8/50/50
f 23/56/56 2/49/49 41/133/117 56/136/120
f 17/65/65 26/68/68 20/72/72 5/69/69
f 95/148/128 74/139/121 5/69/69 20/72/72
f 8/50/50 35/55/55 32/60/60 11/57/57
f 11/57/57 32/60/60 29/64/64 14/61/61
f 14/61/61 29/64/64 26/68/68 17/65/65
f 91/169/142 97/163/138 100/157/134 103/151/130 106/142/124 94/141/123 19/70/70 25/66/66 28/62/62 31/58/58 34/52/52 22/51/51 55/134/118 61/130/114 64/126/110 67/122/106 70/116/100 58/115/99 127/74/74 133/73/73 136/85/81 139/91/85 142/97/89 130/107/93
f 38/113/97 59/120/104 71/119/103 44/114/98
f 59/120/104 38/113/97 113/84/80 128/79/77
f 53/129/113 62/132/116 56/136/120 41/133/117
f 44/114/98 71/119/103 68/124/108 47/121/105
f 47/121/105 68/124/108 65/128/112 50/125/109
f 50/125/109 65/128/112 62/132/116 53/129/113
f 74/139/121 95/148/128 107/147/127 80/140/122
f 89/162/137 98/166/140 92/172/144 77/168/141
f 131/110/95 110/112/96 77/168/141 92/172/144
f 80/140/122 107/147/127 104/154/132 83/150/129
f 83/150/129 104/154/132 101/160/136 86/156/133
f 86/156/133 101/160/136 98/166/140 89/162/137
f 143/102/91 116/105/92 110/112/96 131/110/95
f 128/79/77 113/84/80 125/83/79 134/80/78
f 140/101/87 119/106/88 116/105/92 143/102/91
f 137/88/83 122/90/84 119/96/88 140/94/87
f 134/80/78 125/83/79 122/90/84 137/88/83
